<?xml version="1.0" encoding="utf-8"?>
<!-- Generator: Adobe Illustrator 24.0.0, SVG Export Plug-In . SVG Version: 6.00 Build 0)  -->
<svg version="1.1" id="Layer_1" xmlns="http://www.w3.org/2000/svg" xmlns:xlink="http://www.w3.org/1999/xlink" x="0px" y="0px"
	 viewBox="0 0 1920 1080" style="enable-background:new 0 0 1920 1080;" xml:space="preserve">
<style type="text/css">
	.st0{fill:#FFFFFF;}
	.st1{fill:#CCCCCC;}
	.st2{fill:#70F7BD;}
	.st3{fill:#56BB56;}
	.st4{fill:#151E3C;}
	.st5{fill:#72F57A;}
	.st6{fill:#1E1E1E;}
	.st7{fill:#1E1E1E;stroke:#1E1E1E;stroke-miterlimit:10;}
</style>
<g>
	<g>
		<rect x="1063.5" y="686.95" class="st0" width="134.7" height="145.8"/>
		<path class="st1" d="M1197.7,687.45v144.8H1064v-144.8H1197.7 M1198.7,686.45H1063v146.8h135.7V686.45L1198.7,686.45z"/>
	</g>
	<rect x="1198.7" y="686.45" class="st2" width="135.7" height="146.8"/>
	<rect x="1334.4" y="686.45" class="st3" width="135.7" height="146.8"/>
	<rect x="1470.1" y="686.45" class="st4" width="135.7" height="146.8"/>
	<rect x="1605.8" y="686.45" class="st5" width="135.7" height="146.8"/>
	<g>
		<path class="st0" d="M1620.95,809.31l0.29-1.8h13.79l-0.29,1.8H1620.95z M1622.03,802.88l0.29-1.8h13.79l-0.29,1.8H1622.03z
			 M1622.86,814.43l3.03-18.48h1.8l-3.03,18.48H1622.86z M1629.36,814.43l3.03-18.48h1.8l-3.03,18.48H1629.36z"/>
		<path class="st0" d="M1639.04,814.43l8.27-16.35v-0.14h-9.53v-1.99h11.84v2.09l-8.23,16.39H1639.04z"/>
		<path class="st0" d="M1652.97,814.43v-1.62l6.1-6.68c0.72-0.78,1.31-1.46,1.77-2.04c0.46-0.58,0.81-1.13,1.03-1.64
			c0.23-0.51,0.34-1.05,0.34-1.62c0-0.65-0.16-1.21-0.46-1.69c-0.31-0.48-0.73-0.84-1.27-1.1c-0.54-0.26-1.14-0.39-1.8-0.39
			c-0.71,0-1.33,0.15-1.85,0.44c-0.53,0.29-0.93,0.7-1.22,1.22c-0.29,0.52-0.43,1.14-0.43,1.84h-2.13c0-1.08,0.25-2.03,0.75-2.85
			c0.5-0.82,1.18-1.46,2.04-1.91c0.86-0.46,1.83-0.69,2.91-0.69c1.08,0,2.04,0.23,2.88,0.69c0.84,0.46,1.49,1.07,1.97,1.85
			c0.47,0.78,0.71,1.64,0.71,2.59c0,0.68-0.12,1.34-0.37,1.99c-0.24,0.65-0.67,1.37-1.26,2.16c-0.6,0.79-1.43,1.75-2.49,2.89
			l-4.15,4.44v0.14h8.59v1.99H1652.97z"/>
		<path class="st0" d="M1668.67,814.43v-18.48h11.08v1.99h-8.84v6.24h8.01v1.99h-8.01v8.27H1668.67z"/>
		<path class="st0" d="M1689.03,814.69c-1.06,0-2.01-0.21-2.86-0.63c-0.85-0.42-1.53-1-2.04-1.73c-0.51-0.73-0.79-1.57-0.84-2.51
			h2.17c0.08,0.84,0.46,1.53,1.14,2.07c0.68,0.54,1.49,0.82,2.43,0.82c0.76,0,1.43-0.18,2.03-0.53c0.59-0.36,1.06-0.84,1.4-1.47
			s0.51-1.33,0.51-2.12c0-0.81-0.18-1.53-0.53-2.16c-0.35-0.63-0.83-1.14-1.45-1.5c-0.61-0.37-1.31-0.55-2.1-0.56
			c-0.57-0.01-1.15,0.08-1.74,0.26c-0.6,0.18-1.09,0.4-1.47,0.68l-2.09-0.25l1.12-9.1h9.6v1.99h-7.72l-0.65,5.45h0.11
			c0.38-0.3,0.85-0.55,1.43-0.75c0.57-0.2,1.17-0.3,1.79-0.3c1.13,0,2.14,0.27,3.03,0.81c0.89,0.54,1.58,1.27,2.09,2.21
			s0.76,2,0.76,3.19c0,1.18-0.26,2.23-0.79,3.15c-0.53,0.92-1.25,1.65-2.17,2.18S1690.2,814.69,1689.03,814.69z"/>
		<path class="st0" d="M1699.28,814.43l8.27-16.35v-0.14h-9.53v-1.99h11.84v2.09l-8.23,16.39H1699.28z"/>
		<path class="st0" d="M1711.55,814.43h-2.35l6.79-18.48h2.31l6.79,18.48h-2.35l-5.52-15.56h-0.14L1711.55,814.43z M1712.42,807.21
			h9.46v1.99h-9.46V807.21z"/>
	</g>
	<g>
		<path class="st0" d="M1482.48,809.44l0.29-1.8h13.79l-0.29,1.8H1482.48z M1483.56,803.02l0.29-1.8h13.79l-0.29,1.8H1483.56z
			 M1484.39,814.57l3.03-18.48h1.8l-3.03,18.48H1484.39z M1490.89,814.57l3.03-18.48h1.8l-3.03,18.48H1490.89z"/>
		<path class="st0" d="M1506.48,796.08v18.48h-2.24v-16.14h-0.11l-4.51,3v-2.27l4.62-3.07H1506.48z"/>
		<path class="st0" d="M1517.56,814.82c-1.06,0-2.01-0.21-2.86-0.63c-0.85-0.42-1.53-1-2.04-1.73c-0.51-0.73-0.79-1.57-0.84-2.51
			h2.17c0.08,0.84,0.46,1.53,1.14,2.07c0.68,0.54,1.49,0.82,2.43,0.82c0.76,0,1.43-0.18,2.03-0.53c0.59-0.36,1.06-0.84,1.4-1.47
			s0.51-1.33,0.51-2.12c0-0.81-0.18-1.53-0.53-2.16c-0.35-0.63-0.83-1.14-1.45-1.5c-0.61-0.37-1.31-0.55-2.1-0.56
			c-0.57-0.01-1.15,0.08-1.74,0.26c-0.6,0.18-1.09,0.4-1.47,0.68l-2.09-0.25l1.12-9.1h9.6v1.99h-7.72l-0.65,5.45h0.11
			c0.38-0.3,0.85-0.55,1.43-0.75c0.57-0.2,1.17-0.3,1.79-0.3c1.13,0,2.14,0.27,3.03,0.81c0.89,0.54,1.58,1.27,2.09,2.21
			s0.76,2,0.76,3.19c0,1.18-0.26,2.23-0.79,3.15c-0.53,0.92-1.25,1.65-2.17,2.18S1518.74,814.82,1517.56,814.82z"/>
		<path class="st0" d="M1533.74,796.08v18.48h-2.24v-16.14h-0.11l-4.51,3v-2.27l4.62-3.07H1533.74z"/>
		<path class="st0" d="M1539.37,814.57v-18.48h11.15v1.99h-8.92v6.24h8.34v1.99h-8.34v6.28h9.06v1.99H1539.37z"/>
		<path class="st0" d="M1560.48,814.82c-1.19,0-2.25-0.21-3.18-0.61c-0.93-0.41-1.67-0.98-2.21-1.71c-0.54-0.73-0.84-1.58-0.89-2.55
			h2.27c0.05,0.6,0.25,1.11,0.61,1.54c0.36,0.43,0.83,0.76,1.42,1c0.58,0.24,1.23,0.35,1.94,0.35c0.79,0,1.5-0.14,2.11-0.42
			c0.61-0.28,1.09-0.66,1.44-1.16c0.35-0.49,0.52-1.07,0.52-1.71c0-0.68-0.17-1.28-0.51-1.8c-0.34-0.52-0.83-0.93-1.48-1.22
			c-0.65-0.29-1.44-0.44-2.38-0.44h-1.48v-1.99h1.48c0.73,0,1.38-0.13,1.94-0.4s0.99-0.64,1.31-1.12c0.32-0.48,0.47-1.05,0.47-1.7
			c0-0.63-0.14-1.17-0.42-1.63c-0.28-0.46-0.67-0.82-1.17-1.08c-0.5-0.26-1.09-0.39-1.77-0.39c-0.64,0-1.24,0.12-1.8,0.35
			s-1.02,0.57-1.38,1c-0.36,0.44-0.55,0.96-0.58,1.57h-2.17c0.04-0.97,0.33-1.82,0.88-2.55c0.55-0.73,1.26-1.3,2.15-1.71
			c0.89-0.41,1.86-0.61,2.93-0.61c1.14,0,2.12,0.23,2.94,0.69s1.45,1.07,1.89,1.82c0.44,0.75,0.66,1.56,0.66,2.44
			c0,1.04-0.27,1.93-0.82,2.66c-0.54,0.73-1.28,1.24-2.22,1.53v0.14c1.17,0.19,2.08,0.69,2.73,1.48c0.66,0.8,0.98,1.78,0.98,2.96
			c0,1-0.27,1.91-0.82,2.7s-1.29,1.42-2.22,1.88C1562.75,814.59,1561.68,814.82,1560.48,814.82z"/>
		<path class="st0" d="M1585.61,801.86h-2.24c-0.13-0.64-0.36-1.21-0.69-1.7s-0.72-0.9-1.19-1.23c-0.47-0.33-0.98-0.58-1.55-0.75
			c-0.57-0.17-1.15-0.25-1.77-0.25c-1.12,0-2.13,0.28-3.04,0.85c-0.91,0.57-1.62,1.4-2.16,2.5c-0.53,1.1-0.8,2.45-0.8,4.05
			c0,1.6,0.27,2.95,0.8,4.05c0.53,1.1,1.25,1.93,2.16,2.5c0.91,0.57,1.92,0.85,3.04,0.85c0.61,0,1.2-0.08,1.77-0.25
			c0.57-0.17,1.08-0.42,1.55-0.75c0.47-0.33,0.86-0.75,1.19-1.24c0.33-0.49,0.56-1.05,0.69-1.69h2.24
			c-0.17,0.94-0.48,1.79-0.92,2.54s-1,1.38-1.66,1.9c-0.66,0.52-1.4,0.92-2.22,1.19s-1.7,0.41-2.63,0.41
			c-1.58,0-2.98-0.38-4.21-1.16s-2.19-1.87-2.9-3.29c-0.7-1.42-1.06-3.1-1.06-5.05s0.35-3.63,1.06-5.05c0.7-1.42,1.67-2.51,2.9-3.29
			s2.63-1.16,4.21-1.16c0.93,0,1.81,0.14,2.63,0.41s1.56,0.67,2.22,1.19c0.66,0.52,1.21,1.15,1.66,1.9
			S1585.44,800.91,1585.61,801.86z"/>
	</g>
	<g>
		<path class="st0" d="M1348.37,809.08l0.29-1.8h13.79l-0.29,1.8H1348.37z M1349.45,802.66l0.29-1.8h13.79l-0.29,1.8H1349.45z
			 M1350.28,814.21l3.03-18.48h1.8l-3.03,18.48H1350.28z M1356.78,814.21l3.03-18.48h1.8l-3.03,18.48H1356.78z"/>
		<path class="st0" d="M1371.65,814.46c-1.06,0-2.01-0.21-2.86-0.63c-0.85-0.42-1.53-1-2.04-1.73c-0.51-0.73-0.79-1.57-0.84-2.51
			h2.17c0.08,0.84,0.46,1.53,1.14,2.07c0.68,0.54,1.49,0.82,2.43,0.82c0.76,0,1.43-0.18,2.03-0.53c0.59-0.36,1.06-0.84,1.4-1.47
			s0.51-1.33,0.51-2.12c0-0.81-0.18-1.53-0.53-2.16c-0.35-0.63-0.83-1.14-1.45-1.5c-0.61-0.37-1.31-0.55-2.1-0.56
			c-0.57-0.01-1.15,0.08-1.74,0.26c-0.6,0.18-1.09,0.4-1.47,0.68l-2.09-0.25l1.12-9.1h9.6v1.99h-7.72l-0.65,5.45h0.11
			c0.38-0.3,0.85-0.55,1.43-0.75c0.57-0.2,1.17-0.3,1.79-0.3c1.13,0,2.14,0.27,3.03,0.81c0.89,0.54,1.58,1.27,2.09,2.21
			s0.76,2,0.76,3.19c0,1.18-0.26,2.23-0.79,3.15c-0.53,0.92-1.25,1.65-2.17,2.18S1372.82,814.46,1371.65,814.46z"/>
		<path class="st0" d="M1387.46,814.46c-0.76-0.01-1.52-0.16-2.27-0.43s-1.45-0.74-2.08-1.4c-0.63-0.66-1.13-1.55-1.51-2.68
			c-0.38-1.13-0.57-2.55-0.57-4.25c0-1.64,0.15-3.1,0.46-4.37c0.31-1.27,0.75-2.34,1.33-3.22c0.58-0.87,1.29-1.53,2.12-1.99
			s1.76-0.68,2.8-0.68c1.03,0,1.96,0.21,2.77,0.62c0.81,0.42,1.47,0.99,1.98,1.73c0.51,0.74,0.84,1.59,0.99,2.56h-2.2
			c-0.21-0.85-0.6-1.55-1.19-2.1c-0.59-0.55-1.37-0.83-2.35-0.83c-1.43,0-2.56,0.62-3.38,1.87c-0.82,1.25-1.24,3.01-1.24,5.27h0.14
			c0.34-0.51,0.74-0.95,1.21-1.31c0.47-0.36,0.98-0.64,1.55-0.84c0.57-0.2,1.16-0.3,1.79-0.3c1.06,0,2.03,0.26,2.91,0.79
			c0.88,0.53,1.58,1.25,2.11,2.17s0.79,1.98,0.79,3.17c0,1.14-0.26,2.19-0.77,3.14c-0.51,0.95-1.23,1.7-2.15,2.26
			C1389.79,814.2,1388.71,814.47,1387.46,814.46z M1387.46,812.47c0.76,0,1.44-0.19,2.04-0.57c0.6-0.38,1.08-0.89,1.43-1.53
			c0.35-0.64,0.53-1.35,0.53-2.13c0-0.76-0.17-1.46-0.51-2.09s-0.81-1.13-1.4-1.5s-1.27-0.56-2.03-0.56c-0.57,0-1.1,0.11-1.6,0.34
			s-0.92,0.53-1.29,0.92c-0.37,0.39-0.66,0.84-0.87,1.34c-0.21,0.5-0.32,1.03-0.32,1.58c0,0.73,0.17,1.42,0.52,2.06
			s0.82,1.15,1.43,1.54C1386,812.28,1386.69,812.47,1387.46,812.47z"/>
		<path class="st0" d="M1397.5,814.21v-18.48h6.46c1.29,0,2.35,0.22,3.19,0.66s1.46,1.04,1.87,1.78c0.41,0.74,0.61,1.57,0.61,2.47
			c0,0.79-0.14,1.45-0.42,1.97c-0.28,0.52-0.65,0.93-1.1,1.23s-0.95,0.52-1.48,0.67v0.18c0.57,0.04,1.13,0.23,1.71,0.6
			c0.57,0.36,1.05,0.88,1.43,1.55s0.58,1.5,0.58,2.47c0,0.93-0.21,1.76-0.63,2.5c-0.42,0.74-1.09,1.33-1.99,1.76
			c-0.91,0.43-2.09,0.65-3.55,0.65H1397.5z M1399.73,803.85h4.15c0.67,0,1.28-0.13,1.83-0.4c0.54-0.26,0.98-0.64,1.3-1.12
			c0.32-0.48,0.48-1.05,0.48-1.7c0-0.81-0.28-1.5-0.85-2.07s-1.46-0.85-2.69-0.85h-4.22V803.85z M1399.73,812.22h4.44
			c1.46,0,2.5-0.28,3.12-0.85c0.62-0.57,0.92-1.26,0.92-2.07c0-0.63-0.16-1.21-0.48-1.74s-0.77-0.96-1.36-1.28
			c-0.59-0.32-1.29-0.48-2.09-0.48h-4.55V812.22z"/>
		<path class="st0" d="M1414.03,814.21v-18.48h6.46c1.29,0,2.35,0.22,3.19,0.66s1.46,1.04,1.87,1.78c0.41,0.74,0.61,1.57,0.61,2.47
			c0,0.79-0.14,1.45-0.42,1.97c-0.28,0.52-0.65,0.93-1.1,1.23s-0.95,0.52-1.48,0.67v0.18c0.57,0.04,1.13,0.23,1.71,0.6
			c0.57,0.36,1.05,0.88,1.43,1.55s0.58,1.5,0.58,2.47c0,0.93-0.21,1.76-0.63,2.5c-0.42,0.74-1.09,1.33-1.99,1.76
			c-0.91,0.43-2.09,0.65-3.55,0.65H1414.03z M1416.26,803.85h4.15c0.67,0,1.28-0.13,1.83-0.4c0.54-0.26,0.98-0.64,1.3-1.12
			c0.32-0.48,0.48-1.05,0.48-1.7c0-0.81-0.28-1.5-0.85-2.07s-1.46-0.85-2.69-0.85h-4.22V803.85z M1416.26,812.22h4.44
			c1.46,0,2.5-0.28,3.12-0.85c0.62-0.57,0.92-1.26,0.92-2.07c0-0.63-0.16-1.21-0.48-1.74s-0.77-0.96-1.36-1.28
			c-0.59-0.32-1.29-0.48-2.09-0.48h-4.55V812.22z"/>
		<path class="st0" d="M1436.01,814.46c-1.06,0-2.01-0.21-2.86-0.63c-0.85-0.42-1.53-1-2.04-1.73c-0.51-0.73-0.79-1.57-0.84-2.51
			h2.17c0.08,0.84,0.46,1.53,1.14,2.07c0.68,0.54,1.49,0.82,2.43,0.82c0.76,0,1.43-0.18,2.03-0.53c0.59-0.36,1.06-0.84,1.4-1.47
			s0.51-1.33,0.51-2.12c0-0.81-0.18-1.53-0.53-2.16c-0.35-0.63-0.83-1.14-1.45-1.5c-0.61-0.37-1.31-0.55-2.1-0.56
			c-0.57-0.01-1.15,0.08-1.74,0.26c-0.6,0.18-1.09,0.4-1.47,0.68l-2.09-0.25l1.12-9.1h9.6v1.99h-7.72l-0.65,5.45h0.11
			c0.38-0.3,0.85-0.55,1.43-0.75c0.57-0.2,1.17-0.3,1.79-0.3c1.13,0,2.14,0.27,3.03,0.81c0.89,0.54,1.58,1.27,2.09,2.21
			s0.76,2,0.76,3.19c0,1.18-0.26,2.23-0.79,3.15c-0.53,0.92-1.25,1.65-2.17,2.18S1437.18,814.46,1436.01,814.46z"/>
		<path class="st0" d="M1451.82,814.46c-0.76-0.01-1.52-0.16-2.27-0.43s-1.45-0.74-2.08-1.4c-0.63-0.66-1.13-1.55-1.51-2.68
			c-0.38-1.13-0.57-2.55-0.57-4.25c0-1.64,0.15-3.1,0.46-4.37c0.31-1.27,0.75-2.34,1.33-3.22c0.58-0.87,1.29-1.53,2.12-1.99
			s1.76-0.68,2.8-0.68c1.03,0,1.96,0.21,2.77,0.62c0.81,0.42,1.47,0.99,1.98,1.73c0.51,0.74,0.84,1.59,0.99,2.56h-2.2
			c-0.21-0.85-0.6-1.55-1.19-2.1c-0.59-0.55-1.37-0.83-2.35-0.83c-1.43,0-2.56,0.62-3.38,1.87c-0.82,1.25-1.24,3.01-1.24,5.27h0.14
			c0.34-0.51,0.74-0.95,1.21-1.31c0.47-0.36,0.98-0.64,1.55-0.84c0.57-0.2,1.16-0.3,1.79-0.3c1.06,0,2.03,0.26,2.91,0.79
			c0.88,0.53,1.58,1.25,2.11,2.17s0.79,1.98,0.79,3.17c0,1.14-0.26,2.19-0.77,3.14c-0.51,0.95-1.23,1.7-2.15,2.26
			C1454.15,814.2,1453.07,814.47,1451.82,814.46z M1451.82,812.47c0.76,0,1.44-0.19,2.04-0.57c0.6-0.38,1.08-0.89,1.43-1.53
			c0.35-0.64,0.53-1.35,0.53-2.13c0-0.76-0.17-1.46-0.51-2.09s-0.81-1.13-1.4-1.5s-1.27-0.56-2.03-0.56c-0.57,0-1.1,0.11-1.6,0.34
			s-0.92,0.53-1.29,0.92c-0.37,0.39-0.66,0.84-0.87,1.34c-0.21,0.5-0.32,1.03-0.32,1.58c0,0.73,0.17,1.42,0.52,2.06
			s0.82,1.15,1.43,1.54C1450.36,812.28,1451.05,812.47,1451.82,812.47z"/>
	</g>
	<g>
		<path class="st0" d="M1209.9,809.22l0.29-1.8h13.79l-0.29,1.8H1209.9z M1210.98,802.79l0.29-1.8h13.79l-0.29,1.8H1210.98z
			 M1211.81,814.34l3.03-18.48h1.8l-3.03,18.48H1211.81z M1218.31,814.34l3.03-18.48h1.8l-3.03,18.48H1218.31z"/>
		<path class="st0" d="M1227.98,814.34l8.27-16.35v-0.14h-9.53v-1.99h11.84v2.09l-8.23,16.39H1227.98z"/>
		<path class="st0" d="M1247.54,814.59c-1.36,0-2.52-0.37-3.47-1.11c-0.96-0.74-1.69-1.82-2.19-3.24c-0.51-1.42-0.76-3.13-0.76-5.14
			c0-2,0.25-3.7,0.76-5.12c0.51-1.42,1.24-2.5,2.2-3.25s2.11-1.12,3.46-1.12s2.5,0.38,3.46,1.12c0.96,0.75,1.69,1.83,2.2,3.25
			c0.51,1.42,0.76,3.12,0.76,5.12c0,2.01-0.25,3.72-0.76,5.14c-0.5,1.42-1.24,2.5-2.19,3.24
			C1250.06,814.22,1248.9,814.59,1247.54,814.59z M1247.54,812.61c1.35,0,2.39-0.65,3.14-1.95c0.75-1.3,1.12-3.15,1.12-5.56
			c0-1.6-0.17-2.96-0.51-4.09s-0.83-1.98-1.46-2.57s-1.4-0.88-2.29-0.88c-1.34,0-2.38,0.66-3.13,1.97s-1.13,3.17-1.13,5.57
			c0,1.6,0.17,2.96,0.51,4.08s0.82,1.97,1.46,2.55C1245.88,812.32,1246.65,812.61,1247.54,812.61z"/>
		<path class="st0" d="M1257.72,814.34v-18.48h11.08v1.99h-8.84v6.24h8.01v1.99h-8.01v8.27H1257.72z"/>
		<path class="st0" d="M1272.88,814.34l8.27-16.35v-0.14h-9.53v-1.99h11.84v2.09l-8.23,16.39H1272.88z"/>
		<path class="st0" d="M1287.14,814.34v-18.48h6.46c1.29,0,2.35,0.22,3.19,0.66s1.46,1.04,1.87,1.78c0.41,0.74,0.61,1.57,0.61,2.47
			c0,0.79-0.14,1.45-0.42,1.97c-0.28,0.52-0.65,0.93-1.1,1.23s-0.95,0.52-1.48,0.67v0.18c0.57,0.04,1.13,0.23,1.71,0.6
			c0.57,0.36,1.05,0.88,1.43,1.55s0.58,1.5,0.58,2.47c0,0.93-0.21,1.76-0.63,2.5c-0.42,0.74-1.09,1.33-1.99,1.76
			c-0.91,0.43-2.09,0.65-3.55,0.65H1287.14z M1289.38,803.98h4.15c0.67,0,1.28-0.13,1.83-0.4c0.54-0.26,0.98-0.64,1.3-1.12
			c0.32-0.48,0.48-1.05,0.48-1.7c0-0.81-0.28-1.5-0.85-2.07s-1.46-0.85-2.69-0.85h-4.22V803.98z M1289.38,812.36h4.44
			c1.46,0,2.5-0.28,3.12-0.85c0.62-0.57,0.92-1.26,0.92-2.07c0-0.63-0.16-1.21-0.48-1.74s-0.77-0.96-1.36-1.28
			c-0.59-0.32-1.29-0.48-2.09-0.48h-4.55V812.36z"/>
		<path class="st0" d="M1309.38,814.34h-5.7v-18.48h5.96c1.79,0,3.33,0.37,4.6,1.11s2.25,1.79,2.93,3.17
			c0.68,1.38,1.02,3.02,1.02,4.93c0,1.93-0.34,3.58-1.03,4.97c-0.69,1.39-1.68,2.45-3,3.19
			C1312.85,813.97,1311.25,814.34,1309.38,814.34z M1305.91,812.36h3.32c1.53,0,2.79-0.29,3.8-0.88c1-0.59,1.75-1.43,2.25-2.52
			s0.74-2.38,0.74-3.89c0-1.49-0.24-2.78-0.73-3.86s-1.22-1.91-2.18-2.49c-0.97-0.58-2.17-0.87-3.62-0.87h-3.57V812.36z"/>
	</g>
	<g>
		<path class="st1" d="M1075.9,809.22l0.29-1.8h13.79l-0.29,1.8H1075.9z M1076.98,802.79l0.29-1.8h13.79l-0.29,1.8H1076.98z
			 M1077.81,814.34l3.03-18.48h1.8l-3.03,18.48H1077.81z M1084.31,814.34l3.03-18.48h1.8l-3.03,18.48H1084.31z"/>
		<path class="st1" d="M1093.73,814.34v-18.48h11.08v1.99h-8.84v6.24h8.01v1.99h-8.01v8.27H1093.73z"/>
		<path class="st1" d="M1108.63,814.34v-18.48h11.08v1.99h-8.84v6.24h8.01v1.99h-8.01v8.27H1108.63z"/>
		<path class="st1" d="M1123.54,814.34v-18.48h11.08v1.99h-8.84v6.24h8.01v1.99h-8.01v8.27H1123.54z"/>
		<path class="st1" d="M1138.45,814.34v-18.48h11.08v1.99h-8.84v6.24h8.01v1.99h-8.01v8.27H1138.45z"/>
		<path class="st1" d="M1153.36,814.34v-18.48h11.08v1.99h-8.84v6.24h8.01v1.99h-8.01v8.27H1153.36z"/>
		<path class="st1" d="M1168.27,814.34v-18.48h11.08v1.99h-8.84v6.24h8.01v1.99h-8.01v8.27H1168.27z"/>
	</g>
</g>
<g>
	<path class="st6" d="M193.54,692.39v62.1h-7.52v-62.1H193.54z"/>
	<path class="st6" d="M214.76,726.47v28.02h-7.16v-46.58h6.91v7.28h0.61c1.09-2.37,2.75-4.27,4.97-5.72
		c2.22-1.45,5.09-2.17,8.61-2.17c3.15,0,5.91,0.64,8.28,1.92c2.37,1.28,4.2,3.22,5.52,5.82c1.31,2.6,1.97,5.88,1.97,9.84v29.59
		h-7.16v-29.11c0-3.66-0.95-6.51-2.85-8.57c-1.9-2.05-4.51-3.08-7.82-3.08c-2.29,0-4.32,0.5-6.11,1.49s-3.2,2.44-4.23,4.34
		C215.28,721.46,214.76,723.76,214.76,726.47z"/>
	<path class="st6" d="M277.84,707.91v6.06H253.7v-6.06H277.84z M260.73,696.75h7.16v44.39c0,2.02,0.3,3.53,0.89,4.53
		c0.6,1,1.36,1.67,2.3,2c0.94,0.33,1.94,0.5,2.99,0.5c0.79,0,1.44-0.05,1.94-0.14c0.5-0.09,0.91-0.17,1.21-0.23l1.46,6.43
		c-0.49,0.18-1.16,0.37-2.03,0.56c-0.87,0.19-1.97,0.29-3.31,0.29c-2.02,0-4-0.43-5.93-1.3c-1.93-0.87-3.53-2.19-4.79-3.97
		c-1.26-1.78-1.9-4.02-1.9-6.73V696.75z"/>
	<path class="st6" d="M307.67,755.46c-4.49,0-8.35-1-11.6-2.99c-3.25-1.99-5.74-4.78-7.49-8.37c-1.75-3.59-2.62-7.77-2.62-12.54
		c0-4.77,0.87-8.98,2.62-12.63c1.75-3.65,4.19-6.5,7.34-8.55s6.82-3.08,11.02-3.08c2.43,0,4.82,0.4,7.19,1.21s4.52,2.12,6.46,3.93
		c1.94,1.81,3.49,4.2,4.64,7.17s1.73,6.63,1.73,10.98v3.03h-35.9v-6.19h28.62c0-2.63-0.52-4.97-1.56-7.04
		c-1.04-2.06-2.52-3.69-4.43-4.88c-1.91-1.19-4.16-1.79-6.75-1.79c-2.85,0-5.31,0.7-7.38,2.11c-2.07,1.41-3.66,3.23-4.78,5.47
		c-1.11,2.24-1.67,4.65-1.67,7.22v4.12c0,3.52,0.61,6.49,1.83,8.93c1.22,2.44,2.93,4.29,5.11,5.55c2.18,1.26,4.72,1.9,7.61,1.9
		c1.88,0,3.58-0.27,5.11-0.8c1.53-0.54,2.85-1.34,3.96-2.43c1.11-1.08,1.97-2.43,2.58-4.05l6.91,1.94c-0.73,2.35-1.95,4.4-3.67,6.17
		c-1.72,1.77-3.84,3.14-6.37,4.12C313.67,754.97,310.83,755.46,307.67,755.46z"/>
	<path class="st6" d="M337.88,754.49v-46.58h6.91v7.03h0.49c0.85-2.3,2.39-4.17,4.61-5.61s4.73-2.15,7.52-2.15
		c0.53,0,1.18,0.01,1.97,0.03c0.79,0.02,1.38,0.05,1.79,0.09v7.28c-0.24-0.06-0.79-0.16-1.65-0.29s-1.76-0.2-2.71-0.2
		c-2.26,0-4.28,0.47-6.05,1.41c-1.77,0.94-3.16,2.23-4.18,3.88c-1.02,1.65-1.53,3.52-1.53,5.62v29.47H337.88z"/>
</g>
<g>
	<path class="st6" d="M488.15,715.14h-2.77l8.01-21.82h2.73l8.01,21.82h-2.77l-6.52-18.37h-0.17L488.15,715.14z M489.18,706.62
		h11.17v2.34h-11.17V706.62z"/>
	<path class="st6" d="M512.02,715.52c-1.04,0-1.98-0.2-2.82-0.59c-0.85-0.39-1.52-0.97-2.01-1.71s-0.75-1.66-0.75-2.72
		c0-0.94,0.18-1.7,0.55-2.29s0.86-1.05,1.48-1.38c0.62-0.33,1.3-0.58,2.05-0.75s1.5-0.3,2.26-0.4c0.99-0.13,1.8-0.23,2.42-0.29
		s1.08-0.18,1.36-0.35c0.29-0.16,0.43-0.45,0.43-0.85v-0.08c0-1.05-0.29-1.87-0.86-2.45c-0.57-0.58-1.44-0.87-2.59-0.87
		c-1.2,0-2.14,0.26-2.82,0.79c-0.68,0.53-1.16,1.09-1.44,1.68l-2.39-0.85c0.43-0.99,1-1.77,1.71-2.33c0.71-0.56,1.49-0.95,2.34-1.17
		c0.85-0.22,1.68-0.34,2.51-0.34c0.53,0,1.13,0.06,1.82,0.19c0.69,0.12,1.35,0.38,1.99,0.76c0.64,0.38,1.18,0.96,1.6,1.74
		c0.43,0.77,0.64,1.81,0.64,3.11v10.78H517v-2.22h-0.13c-0.17,0.36-0.45,0.74-0.85,1.14c-0.4,0.41-0.93,0.75-1.59,1.03
		C513.78,715.38,512.97,715.52,512.02,715.52z M512.4,713.26c0.99,0,1.83-0.2,2.52-0.59s1.2-0.89,1.56-1.51s0.53-1.27,0.53-1.95
		v-2.3c-0.11,0.13-0.34,0.24-0.7,0.35c-0.36,0.1-0.77,0.19-1.24,0.27c-0.46,0.08-0.92,0.14-1.35,0.19c-0.44,0.05-0.79,0.1-1.06,0.13
		c-0.65,0.08-1.26,0.22-1.83,0.41c-0.56,0.19-1.02,0.47-1.36,0.84c-0.34,0.37-0.52,0.88-0.52,1.52c0,0.87,0.32,1.53,0.97,1.98
		C510.57,713.04,511.4,713.26,512.4,713.26z"/>
	<path class="st6" d="M532.9,715.14v-21.82h7.63c1.52,0,2.77,0.26,3.76,0.78c0.99,0.52,1.72,1.22,2.21,2.1s0.72,1.85,0.72,2.91
		c0,0.94-0.17,1.71-0.5,2.32s-0.76,1.09-1.3,1.45c-0.54,0.35-1.12,0.62-1.74,0.79v0.21c0.67,0.04,1.34,0.28,2.01,0.7
		c0.67,0.43,1.24,1.04,1.69,1.83c0.45,0.8,0.68,1.77,0.68,2.92c0,1.09-0.25,2.08-0.75,2.95c-0.5,0.87-1.28,1.57-2.35,2.08
		c-1.07,0.51-2.47,0.77-4.19,0.77H532.9z M535.54,702.91h4.9c0.8,0,1.51-0.16,2.16-0.47c0.64-0.31,1.15-0.75,1.53-1.32
		s0.57-1.24,0.57-2c0-0.96-0.33-1.77-1-2.45c-0.67-0.67-1.73-1.01-3.17-1.01h-4.99V702.91z M535.54,712.8h5.24
		c1.73,0,2.95-0.34,3.68-1.01c0.73-0.67,1.09-1.49,1.09-2.45c0-0.74-0.19-1.42-0.56-2.05c-0.38-0.63-0.91-1.13-1.61-1.51
		c-0.7-0.38-1.52-0.57-2.47-0.57h-5.37V712.8z"/>
	<path class="st6" d="M552.42,715.14v-21.82h2.51v8.05h0.21c0.18-0.28,0.44-0.65,0.77-1.09c0.33-0.44,0.81-0.84,1.43-1.19
		c0.62-0.35,1.46-0.53,2.53-0.53c1.38,0,2.59,0.34,3.64,1.03c1.05,0.69,1.87,1.67,2.46,2.93c0.59,1.26,0.88,2.76,0.88,4.47
		c0,1.73-0.29,3.23-0.88,4.5c-0.59,1.27-1.41,2.25-2.45,2.94c-1.04,0.69-2.25,1.04-3.61,1.04c-1.05,0-1.89-0.18-2.52-0.53
		c-0.63-0.35-1.12-0.75-1.46-1.2c-0.34-0.45-0.6-0.83-0.79-1.12h-0.3v2.51H552.42z M554.89,706.96c0,1.24,0.18,2.32,0.54,3.26
		c0.36,0.94,0.89,1.68,1.59,2.21c0.7,0.53,1.55,0.79,2.56,0.79c1.05,0,1.93-0.28,2.64-0.84c0.71-0.56,1.24-1.31,1.6-2.26
		c0.36-0.95,0.54-2,0.54-3.17c0-1.15-0.18-2.19-0.53-3.12s-0.88-1.66-1.59-2.21c-0.71-0.54-1.59-0.82-2.66-0.82
		c-1.02,0-1.88,0.26-2.58,0.77c-0.7,0.51-1.22,1.23-1.58,2.15C555.06,704.67,554.89,705.74,554.89,706.96z"/>
	<path class="st6" d="M597.03,700.14h-2.64c-0.16-0.76-0.43-1.43-0.81-2s-0.86-1.06-1.41-1.45s-1.16-0.69-1.83-0.89
		c-0.67-0.2-1.36-0.3-2.09-0.3c-1.32,0-2.52,0.33-3.58,1c-1.07,0.67-1.92,1.65-2.55,2.95c-0.63,1.3-0.94,2.89-0.94,4.78
		c0,1.89,0.31,3.48,0.94,4.78c0.63,1.3,1.48,2.28,2.55,2.95c1.07,0.67,2.26,1,3.58,1c0.72,0,1.42-0.1,2.09-0.3
		c0.67-0.2,1.28-0.5,1.83-0.89c0.55-0.39,1.02-0.88,1.41-1.46c0.39-0.58,0.66-1.25,0.81-2h2.64c-0.2,1.12-0.56,2.11-1.09,2.99
		c-0.53,0.88-1.18,1.63-1.96,2.24s-1.66,1.08-2.63,1.4c-0.97,0.32-2,0.48-3.11,0.48c-1.86,0-3.52-0.45-4.96-1.36
		s-2.59-2.2-3.42-3.88c-0.83-1.68-1.25-3.67-1.25-5.97s0.42-4.29,1.25-5.97s1.97-2.97,3.42-3.88s3.1-1.36,4.96-1.36
		c1.1,0,2.14,0.16,3.11,0.48c0.97,0.32,1.84,0.79,2.63,1.4s1.43,1.36,1.96,2.24C596.47,698.02,596.83,699.02,597.03,700.14z"/>
	<path class="st6" d="M607.6,715.48c-1.53,0-2.85-0.36-3.96-1.09c-1.11-0.72-1.96-1.72-2.56-2.99c-0.6-1.27-0.9-2.72-0.9-4.36
		c0-1.66,0.31-3.13,0.92-4.41c0.61-1.27,1.47-2.27,2.58-2.99s2.4-1.08,3.87-1.08c1.15,0,2.19,0.21,3.11,0.64s1.68,1.02,2.27,1.79
		c0.59,0.77,0.96,1.66,1.1,2.68h-2.51c-0.19-0.75-0.62-1.41-1.27-1.99c-0.66-0.58-1.54-0.87-2.65-0.87c-0.98,0-1.84,0.25-2.57,0.76
		c-0.73,0.51-1.31,1.22-1.72,2.14c-0.41,0.92-0.61,2-0.61,3.23c0,1.26,0.2,2.37,0.6,3.3c0.4,0.94,0.97,1.67,1.7,2.18
		c0.73,0.52,1.6,0.78,2.59,0.78c0.65,0,1.25-0.11,1.78-0.34c0.53-0.23,0.98-0.55,1.35-0.98c0.37-0.43,0.63-0.94,0.79-1.53h2.51
		c-0.14,0.97-0.49,1.83-1.05,2.6s-1.29,1.38-2.21,1.83C609.87,715.25,608.81,715.48,607.6,715.48z"/>
	<path class="st6" d="M633.21,715.14h-6.73v-21.82h7.03c2.12,0,3.93,0.44,5.43,1.31s2.66,2.12,3.46,3.74s1.2,3.56,1.2,5.82
		c0,2.27-0.41,4.23-1.21,5.87s-1.99,2.89-3.54,3.77C637.31,714.7,635.43,715.14,633.21,715.14z M629.12,712.8h3.92
		c1.8,0,3.3-0.35,4.48-1.04s2.07-1.69,2.65-2.97c0.58-1.29,0.87-2.82,0.87-4.59c0-1.76-0.29-3.28-0.86-4.55
		c-0.58-1.28-1.43-2.25-2.58-2.94s-2.57-1.03-4.27-1.03h-4.22V712.8z"/>
	<path class="st6" d="M653.88,715.48c-1.36,0-2.57-0.35-3.61-1.04c-1.04-0.69-1.86-1.67-2.45-2.94c-0.59-1.27-0.88-2.77-0.88-4.5
		c0-1.72,0.29-3.21,0.88-4.47c0.59-1.26,1.41-2.24,2.46-2.93c1.05-0.69,2.27-1.03,3.64-1.03c1.06,0,1.91,0.18,2.53,0.53
		s1.1,0.75,1.43,1.19c0.33,0.44,0.59,0.81,0.77,1.09h0.21v-8.05h2.51v21.82h-2.43v-2.51h-0.3c-0.19,0.3-0.45,0.67-0.79,1.12
		c-0.34,0.45-0.83,0.85-1.46,1.2S654.93,715.48,653.88,715.48z M654.22,713.22c1.01,0,1.86-0.26,2.56-0.79
		c0.7-0.53,1.23-1.26,1.59-2.21c0.36-0.94,0.54-2.03,0.54-3.26c0-1.22-0.18-2.29-0.53-3.21c-0.36-0.92-0.88-1.64-1.58-2.15
		c-0.7-0.51-1.56-0.77-2.58-0.77c-1.06,0-1.95,0.27-2.66,0.82c-0.71,0.54-1.24,1.28-1.59,2.21s-0.53,1.97-0.53,3.12
		c0,1.17,0.18,2.22,0.54,3.17c0.36,0.95,0.89,1.7,1.6,2.26C652.29,712.94,653.17,713.22,654.22,713.22z"/>
	<path class="st6" d="M675.1,715.14v-21.82h13.17v2.34h-10.53v7.37h9.84v2.34h-9.84v7.42h10.7v2.34H675.1z"/>
	<path class="st6" d="M699.56,715.48c-1.58,0-2.94-0.35-4.08-1.05c-1.14-0.7-2.02-1.68-2.63-2.94s-0.92-2.73-0.92-4.41
		c0-1.68,0.31-3.16,0.92-4.44s1.47-2.28,2.58-3s2.4-1.08,3.87-1.08c0.85,0,1.69,0.14,2.52,0.43s1.59,0.74,2.27,1.38
		c0.68,0.64,1.23,1.47,1.63,2.52c0.4,1.04,0.61,2.33,0.61,3.86v1.07h-12.61v-2.17h10.06c0-0.92-0.18-1.75-0.55-2.47
		s-0.88-1.3-1.56-1.71c-0.67-0.42-1.46-0.63-2.37-0.63c-1,0-1.87,0.25-2.59,0.74c-0.73,0.49-1.29,1.13-1.68,1.92
		c-0.39,0.79-0.59,1.63-0.59,2.54v1.45c0,1.24,0.21,2.28,0.64,3.14c0.43,0.86,1.03,1.51,1.79,1.95c0.77,0.44,1.66,0.67,2.67,0.67
		c0.66,0,1.26-0.09,1.79-0.28c0.54-0.19,1-0.47,1.39-0.85s0.69-0.85,0.91-1.42l2.43,0.68c-0.26,0.82-0.69,1.55-1.29,2.17
		c-0.6,0.62-1.35,1.1-2.24,1.45C701.66,715.31,700.67,715.48,699.56,715.48z"/>
	<path class="st6" d="M718.95,715.14v-21.82h13.08v2.34h-10.44v7.37h9.46v2.34h-9.46v9.76H718.95z"/>
	<path class="st6" d="M743.49,698.78v2.13h-8.82v-2.13H743.49z M737.31,715.14v-18.62c0-0.94,0.22-1.72,0.66-2.34
		c0.44-0.62,1.01-1.09,1.71-1.41s1.45-0.47,2.23-0.47c0.62,0,1.12,0.05,1.51,0.15s0.68,0.19,0.87,0.28l-0.72,2.17
		c-0.13-0.04-0.3-0.1-0.53-0.16c-0.22-0.06-0.52-0.1-0.88-0.1c-0.83,0-1.43,0.21-1.79,0.63c-0.37,0.42-0.55,1.03-0.55,1.84v18.03
		H737.31z"/>
	<path class="st6" d="M770.72,700.14c-0.23-0.72-0.54-1.36-0.92-1.93c-0.38-0.57-0.83-1.06-1.35-1.46s-1.11-0.71-1.77-0.93
		c-0.66-0.21-1.38-0.32-2.17-0.32c-1.29,0-2.47,0.33-3.53,1c-1.06,0.67-1.9,1.65-2.52,2.95s-0.94,2.89-0.94,4.78
		c0,1.89,0.32,3.48,0.95,4.78c0.63,1.3,1.49,2.28,2.57,2.95c1.08,0.67,2.29,1,3.64,1c1.25,0,2.35-0.27,3.31-0.8s1.7-1.3,2.24-2.28
		c0.54-0.98,0.8-2.14,0.8-3.48l0.81,0.17h-6.56v-2.34h8.31v2.34c0,1.8-0.38,3.36-1.15,4.69s-1.81,2.36-3.15,3.08
		c-1.34,0.73-2.88,1.09-4.61,1.09c-1.93,0-3.63-0.45-5.09-1.36c-1.46-0.91-2.6-2.2-3.41-3.88c-0.81-1.68-1.22-3.67-1.22-5.97
		c0-1.73,0.23-3.28,0.7-4.66c0.46-1.38,1.12-2.56,1.98-3.53c0.85-0.97,1.86-1.72,3.03-2.24s2.45-0.78,3.85-0.78
		c1.15,0,2.22,0.17,3.22,0.52c1,0.34,1.89,0.83,2.67,1.46c0.78,0.63,1.44,1.38,1.97,2.25c0.53,0.87,0.89,1.83,1.09,2.89H770.72z"/>
	<path class="st6" d="M784.36,721.62c-1.21,0-2.26-0.15-3.13-0.46c-0.87-0.31-1.6-0.71-2.18-1.21c-0.58-0.5-1.04-1.04-1.38-1.6
		l2-1.41c0.23,0.3,0.51,0.64,0.86,1.03c0.35,0.39,0.83,0.72,1.43,1.01c0.61,0.29,1.4,0.43,2.39,0.43c1.32,0,2.41-0.32,3.27-0.96
		c0.86-0.64,1.29-1.64,1.29-3v-3.32h-0.21c-0.19,0.3-0.45,0.67-0.78,1.1s-0.82,0.82-1.45,1.16c-0.63,0.34-1.48,0.51-2.54,0.51
		c-1.32,0-2.51-0.31-3.55-0.94c-1.05-0.62-1.88-1.53-2.48-2.73c-0.61-1.19-0.91-2.64-0.91-4.35c0-1.68,0.29-3.14,0.88-4.38
		c0.59-1.25,1.41-2.21,2.46-2.9c1.05-0.69,2.27-1.03,3.64-1.03c1.06,0,1.91,0.18,2.54,0.53s1.11,0.75,1.45,1.19
		c0.34,0.44,0.6,0.81,0.78,1.09H789v-2.6h2.43v16.83c0,1.41-0.32,2.55-0.95,3.44c-0.64,0.88-1.49,1.53-2.56,1.95
		C786.85,721.41,785.67,721.62,784.36,721.62z M784.27,712.62c1.01,0,1.86-0.23,2.56-0.69c0.7-0.46,1.23-1.12,1.59-1.99
		c0.36-0.87,0.54-1.9,0.54-3.11c0-1.18-0.18-2.22-0.53-3.12c-0.36-0.9-0.88-1.61-1.58-2.12c-0.7-0.51-1.56-0.77-2.58-0.77
		c-1.06,0-1.95,0.27-2.66,0.81c-0.71,0.54-1.24,1.26-1.59,2.17s-0.53,1.92-0.53,3.03c0,1.14,0.18,2.14,0.54,3.01
		c0.36,0.87,0.89,1.55,1.6,2.04C782.34,712.38,783.22,712.62,784.27,712.62z"/>
	<path class="st6" d="M487.26,751.14v-21.82h2.64v9.72h11.63v-9.72h2.64v21.82h-2.64v-9.76H489.9v9.76H487.26z"/>
	<path class="st6" d="M515.73,757.62c-1.21,0-2.26-0.15-3.13-0.46c-0.87-0.31-1.6-0.71-2.18-1.21c-0.58-0.5-1.04-1.04-1.38-1.6
		l2-1.41c0.23,0.3,0.51,0.64,0.86,1.03c0.35,0.39,0.83,0.72,1.43,1.01c0.61,0.29,1.4,0.43,2.39,0.43c1.32,0,2.41-0.32,3.27-0.96
		c0.86-0.64,1.29-1.64,1.29-3v-3.32h-0.21c-0.19,0.3-0.45,0.67-0.78,1.1s-0.82,0.82-1.45,1.16c-0.63,0.34-1.48,0.51-2.54,0.51
		c-1.32,0-2.51-0.31-3.55-0.94c-1.05-0.62-1.88-1.53-2.48-2.73c-0.61-1.19-0.91-2.64-0.91-4.35c0-1.68,0.29-3.14,0.88-4.38
		c0.59-1.25,1.41-2.21,2.46-2.9c1.05-0.69,2.27-1.03,3.64-1.03c1.06,0,1.91,0.18,2.54,0.53s1.11,0.75,1.45,1.19
		c0.34,0.44,0.6,0.81,0.78,1.09h0.26v-2.6h2.43v16.83c0,1.41-0.32,2.55-0.95,3.44c-0.64,0.88-1.49,1.53-2.56,1.95
		C518.22,757.41,517.03,757.62,515.73,757.62z M515.64,748.62c1.01,0,1.86-0.23,2.56-0.69c0.7-0.46,1.23-1.12,1.59-1.99
		c0.36-0.87,0.54-1.9,0.54-3.11c0-1.18-0.18-2.22-0.53-3.12c-0.36-0.9-0.88-1.61-1.58-2.12c-0.7-0.51-1.56-0.77-2.58-0.77
		c-1.06,0-1.95,0.27-2.66,0.81c-0.71,0.54-1.24,1.26-1.59,2.17s-0.53,1.92-0.53,3.03c0,1.14,0.18,2.14,0.54,3.01
		c0.36,0.87,0.89,1.55,1.6,2.04C513.71,748.38,514.59,748.62,515.64,748.62z"/>
	<path class="st6" d="M538.82,729.32v21.82h-2.64v-21.82H538.82z"/>
	<path class="st6" d="M545.04,732.05c-0.49,0-0.91-0.17-1.26-0.5s-0.53-0.74-0.53-1.2s0.18-0.87,0.53-1.2s0.77-0.5,1.26-0.5
		s0.91,0.17,1.26,0.5s0.53,0.73,0.53,1.2s-0.18,0.87-0.53,1.2S545.53,732.05,545.04,732.05z M543.77,751.14v-16.36h2.51v16.36
		H543.77z"/>
	<path class="st6" d="M568.01,729.32h2.64v15.6c0,1.39-0.26,2.58-0.77,3.55c-0.51,0.97-1.23,1.71-2.16,2.22
		c-0.93,0.5-2.03,0.76-3.29,0.76c-1.19,0-2.25-0.22-3.19-0.65c-0.93-0.44-1.66-1.06-2.19-1.87s-0.8-1.77-0.8-2.89h2.6
		c0,0.62,0.15,1.16,0.46,1.61c0.31,0.46,0.73,0.82,1.27,1.07c0.54,0.26,1.15,0.38,1.84,0.38c0.76,0,1.41-0.16,1.94-0.48
		c0.53-0.32,0.94-0.79,1.22-1.41c0.28-0.62,0.42-1.38,0.42-2.29V729.32z"/>
	<path class="st6" d="M575.6,734.78h2.51v17.56c0,1.01-0.17,1.88-0.52,2.62c-0.34,0.74-0.86,1.31-1.56,1.72
		c-0.69,0.4-1.56,0.61-2.62,0.61c-0.09,0-0.17,0-0.26,0c-0.08,0-0.17,0-0.26,0v-2.34c0.08,0,0.16,0,0.23,0c0.07,0,0.15,0,0.23,0
		c0.77,0,1.33-0.23,1.68-0.68c0.35-0.45,0.53-1.09,0.53-1.92V734.78z M576.83,732.05c-0.49,0-0.91-0.17-1.26-0.5
		s-0.53-0.74-0.53-1.2s0.18-0.87,0.53-1.2s0.77-0.5,1.26-0.5c0.49,0,0.91,0.17,1.26,0.5s0.53,0.73,0.53,1.2s-0.18,0.87-0.53,1.2
		S577.32,732.05,576.83,732.05z"/>
	<path class="st6" d="M591.49,751.14v-21.82h2.64v10.82h0.26l9.8-10.82h3.45l-9.16,9.84l9.16,11.97h-3.2L596.86,741l-2.73,3.07v7.07
		H591.49z"/>
	<path class="st6" d="M610.71,751.14v-21.82h2.51v21.82H610.71z M613.05,745.17l-0.04-3.11h0.51l7.16-7.29h3.11l-7.63,7.71h-0.21
		L613.05,745.17z M621.11,751.14l-6.39-8.1l1.79-1.75l7.8,9.84H621.11z"/>
	<path class="st6" d="M635.81,751.14v-21.82h2.64v19.47h10.14v2.34H635.81z"/>
	<path class="st6" d="M654.86,729.32v21.82h-2.51v-21.82H654.86z"/>
	<path class="st6" d="M668.24,729.32h3.15l7.42,18.11h0.26l7.42-18.11h3.15v21.82h-2.47v-16.58h-0.21l-6.82,16.58h-2.39l-6.82-16.58
		h-0.21v16.58h-2.47V729.32z"/>
	<path class="st6" d="M694.57,751.14v-16.36H697v2.56h0.21c0.34-0.87,0.89-1.55,1.65-2.04c0.76-0.49,1.67-0.73,2.74-0.73
		c1.08,0,1.98,0.24,2.7,0.73c0.72,0.49,1.28,1.17,1.69,2.04h0.17c0.42-0.85,1.05-1.52,1.89-2.02c0.84-0.5,1.84-0.75,3.01-0.75
		c1.46,0,2.66,0.46,3.59,1.37c0.93,0.91,1.4,2.33,1.4,4.26v10.95h-2.51v-10.95c0-1.21-0.33-2.07-0.99-2.59s-1.44-0.78-2.33-0.78
		c-1.15,0-2.04,0.35-2.67,1.04c-0.63,0.69-0.95,1.57-0.95,2.63v10.65h-2.56v-11.21c0-0.93-0.3-1.68-0.91-2.25
		c-0.6-0.57-1.38-0.86-2.33-0.86c-0.65,0-1.26,0.17-1.83,0.52c-0.56,0.35-1.02,0.83-1.36,1.44c-0.34,0.61-0.52,1.32-0.52,2.12v10.23
		H694.57z"/>
	<path class="st6" d="M746.73,729.32v21.82h-2.56l-11.89-17.13h-0.21v17.13h-2.64v-21.82h2.56l11.93,17.17h0.21v-17.17H746.73z"/>
	<path class="st6" d="M754.19,741.3v9.84h-2.51v-16.36h2.43v2.56h0.21c0.38-0.83,0.97-1.5,1.75-2.01c0.78-0.51,1.79-0.76,3.03-0.76
		c1.11,0,2.08,0.23,2.91,0.68c0.83,0.45,1.48,1.13,1.94,2.05c0.46,0.91,0.69,2.06,0.69,3.46v10.4h-2.51v-10.23
		c0-1.29-0.33-2.29-1-3.01c-0.67-0.72-1.58-1.08-2.75-1.08c-0.8,0-1.52,0.17-2.15,0.52c-0.63,0.35-1.12,0.86-1.49,1.52
		C754.37,739.53,754.19,740.34,754.19,741.3z"/>
	<path class="st6" d="M505.67,776.23c0,2.3-0.42,4.29-1.25,5.97c-0.83,1.68-1.97,2.97-3.42,3.88c-1.45,0.91-3.1,1.36-4.96,1.36
		s-3.52-0.45-4.96-1.36s-2.59-2.2-3.42-3.88c-0.83-1.68-1.25-3.67-1.25-5.97s0.42-4.29,1.25-5.97s1.97-2.97,3.42-3.88
		s3.1-1.36,4.96-1.36s3.52,0.45,4.96,1.36c1.45,0.91,2.59,2.2,3.42,3.88S505.67,773.93,505.67,776.23z M503.11,776.23
		c0-1.89-0.31-3.48-0.94-4.78c-0.63-1.3-1.48-2.28-2.55-2.95c-1.07-0.67-2.26-1-3.58-1c-1.32,0-2.52,0.33-3.58,1
		c-1.07,0.67-1.92,1.65-2.55,2.95c-0.63,1.3-0.94,2.89-0.94,4.78c0,1.89,0.31,3.48,0.94,4.78c0.63,1.3,1.48,2.28,2.55,2.95
		c1.07,0.67,2.26,1,3.58,1c1.32,0,2.52-0.33,3.58-1c1.07-0.67,1.92-1.65,2.55-2.95C502.8,779.71,503.11,778.12,503.11,776.23z"/>
	<path class="st6" d="M516.41,787.48c-1.48,0-2.77-0.35-3.88-1.05c-1.11-0.7-1.98-1.69-2.6-2.95c-0.62-1.26-0.93-2.74-0.93-4.43
		c0-1.7,0.31-3.19,0.93-4.46s1.49-2.26,2.6-2.96c1.11-0.7,2.41-1.05,3.88-1.05s2.77,0.35,3.88,1.05c1.11,0.7,1.98,1.69,2.6,2.96
		c0.62,1.27,0.93,2.76,0.93,4.46c0,1.69-0.31,3.17-0.93,4.43c-0.62,1.26-1.49,2.25-2.6,2.95
		C519.18,787.13,517.88,787.48,516.41,787.48z M516.41,785.22c1.12,0,2.05-0.29,2.77-0.86s1.26-1.33,1.61-2.27
		c0.35-0.94,0.52-1.95,0.52-3.05s-0.17-2.11-0.52-3.06c-0.35-0.94-0.88-1.71-1.61-2.29c-0.72-0.58-1.65-0.87-2.77-0.87
		s-2.05,0.29-2.77,0.87c-0.72,0.58-1.26,1.35-1.61,2.29c-0.35,0.95-0.52,1.96-0.52,3.06s0.17,2.11,0.52,3.05
		c0.35,0.94,0.88,1.69,1.61,2.27C514.36,784.93,515.28,785.22,516.41,785.22z"/>
	<path class="st6" d="M536.44,787.14v-21.82h7.37c1.71,0,3.11,0.31,4.2,0.92s1.9,1.44,2.42,2.49c0.53,1.04,0.79,2.21,0.79,3.49
		c0,1.29-0.26,2.45-0.78,3.5c-0.52,1.05-1.33,1.89-2.41,2.51c-1.09,0.62-2.48,0.93-4.18,0.93h-5.28v-2.34h5.2
		c1.17,0,2.11-0.2,2.82-0.61c0.71-0.4,1.23-0.95,1.55-1.65s0.48-1.48,0.48-2.35c0-0.87-0.16-1.65-0.48-2.34
		c-0.32-0.69-0.84-1.23-1.56-1.62c-0.72-0.39-1.67-0.59-2.85-0.59h-4.65v19.47H536.44z"/>
	<path class="st6" d="M555.14,793.28v-22.5h2.43v2.6h0.3c0.18-0.28,0.44-0.65,0.77-1.09c0.33-0.44,0.81-0.84,1.43-1.19
		c0.62-0.35,1.46-0.53,2.53-0.53c1.38,0,2.59,0.34,3.64,1.03c1.05,0.69,1.87,1.67,2.46,2.93c0.59,1.26,0.88,2.76,0.88,4.47
		c0,1.73-0.29,3.23-0.88,4.5c-0.59,1.27-1.41,2.25-2.45,2.94c-1.04,0.69-2.25,1.04-3.61,1.04c-1.05,0-1.89-0.18-2.52-0.53
		c-0.63-0.35-1.12-0.75-1.46-1.2c-0.34-0.45-0.6-0.83-0.79-1.12h-0.21v8.65H555.14z M557.61,778.96c0,1.24,0.18,2.32,0.54,3.26
		c0.36,0.94,0.89,1.68,1.59,2.21s1.55,0.79,2.56,0.79c1.05,0,1.93-0.28,2.64-0.84c0.71-0.56,1.24-1.31,1.6-2.26
		c0.36-0.95,0.54-2,0.54-3.17c0-1.15-0.18-2.19-0.53-3.12s-0.88-1.66-1.59-2.21c-0.71-0.54-1.59-0.82-2.66-0.82
		c-1.02,0-1.88,0.26-2.58,0.77c-0.7,0.51-1.22,1.23-1.58,2.15C557.79,776.67,557.61,777.74,557.61,778.96z"/>
	<path class="st6" d="M600.61,776.23c0,2.3-0.42,4.29-1.25,5.97c-0.83,1.68-1.97,2.97-3.42,3.88c-1.45,0.91-3.1,1.36-4.96,1.36
		s-3.52-0.45-4.96-1.36s-2.59-2.2-3.42-3.88c-0.83-1.68-1.25-3.67-1.25-5.97s0.42-4.29,1.25-5.97s1.97-2.97,3.42-3.88
		s3.1-1.36,4.96-1.36s3.52,0.45,4.96,1.36c1.45,0.91,2.59,2.2,3.42,3.88S600.61,773.93,600.61,776.23z M598.05,776.23
		c0-1.89-0.31-3.48-0.94-4.78c-0.63-1.3-1.48-2.28-2.55-2.95c-1.07-0.67-2.26-1-3.58-1c-1.32,0-2.52,0.33-3.58,1
		c-1.07,0.67-1.92,1.65-2.55,2.95c-0.63,1.3-0.94,2.89-0.94,4.78c0,1.89,0.31,3.48,0.94,4.78c0.63,1.3,1.48,2.28,2.55,2.95
		c1.07,0.67,2.26,1,3.58,1c1.32,0,2.52-0.33,3.58-1c1.07-0.67,1.92-1.65,2.55-2.95C597.74,779.71,598.05,778.12,598.05,776.23z
		 M590.13,780.32h2.9l2.43,3.2l0.64,0.85l3.62,4.82h-2.9l-2.39-3.2l-0.6-0.81L590.13,780.32z"/>
	<path class="st6" d="M618.38,793.28h-2.51v-8.65h-0.21c-0.19,0.3-0.45,0.67-0.79,1.12c-0.34,0.45-0.83,0.85-1.46,1.2
		s-1.47,0.53-2.52,0.53c-1.36,0-2.57-0.35-3.61-1.04c-1.04-0.69-1.86-1.67-2.45-2.94c-0.59-1.27-0.88-2.77-0.88-4.5
		c0-1.72,0.29-3.21,0.88-4.47c0.59-1.26,1.41-2.24,2.46-2.93c1.05-0.69,2.27-1.03,3.64-1.03c1.06,0,1.91,0.18,2.53,0.53
		s1.1,0.75,1.43,1.19c0.33,0.44,0.59,0.81,0.77,1.09h0.3v-2.6h2.43V793.28z M615.91,778.96c0-1.22-0.18-2.29-0.53-3.21
		c-0.36-0.92-0.88-1.64-1.58-2.15c-0.7-0.51-1.56-0.77-2.58-0.77c-1.06,0-1.95,0.27-2.66,0.82c-0.71,0.54-1.24,1.28-1.59,2.21
		s-0.53,1.97-0.53,3.12c0,1.17,0.18,2.22,0.54,3.17c0.36,0.95,0.89,1.7,1.6,2.26c0.71,0.56,1.59,0.84,2.64,0.84
		c1.01,0,1.86-0.26,2.56-0.79c0.7-0.53,1.23-1.26,1.59-2.21C615.73,781.28,615.91,780.19,615.91,778.96z"/>
	<path class="st6" d="M631.76,787.14v-21.82h7.37c1.7,0,3.1,0.29,4.2,0.87c1.09,0.58,1.9,1.37,2.43,2.38
		c0.53,1.01,0.79,2.16,0.79,3.44c0,1.29-0.26,2.43-0.79,3.42c-0.53,0.99-1.33,1.77-2.42,2.34c-1.09,0.57-2.48,0.85-4.17,0.85h-5.97
		v-2.39h5.88c1.16,0,2.1-0.17,2.82-0.51c0.71-0.34,1.23-0.83,1.56-1.45c0.32-0.63,0.48-1.38,0.48-2.25c0-0.87-0.16-1.64-0.49-2.29
		s-0.85-1.16-1.57-1.52s-1.67-0.54-2.84-0.54h-4.65v19.47H631.76z M642.03,777.34l5.37,9.8h-3.07l-5.28-9.8H642.03z"/>
	<path class="st6" d="M650.6,787.14v-16.36h2.43v2.47h0.17c0.3-0.81,0.84-1.47,1.62-1.97c0.78-0.5,1.66-0.76,2.64-0.76
		c0.18,0,0.42,0,0.69,0.01s0.49,0.02,0.63,0.03v2.56c-0.08-0.02-0.28-0.06-0.58-0.1s-0.62-0.07-0.95-0.07c-0.8,0-1.5,0.17-2.12,0.5
		c-0.62,0.33-1.11,0.79-1.47,1.36c-0.36,0.58-0.54,1.24-0.54,1.98v10.36H650.6z"/>
	<path class="st6" d="M682.47,770.78c-0.13-1.08-0.65-1.92-1.56-2.51s-2.02-0.89-3.35-0.89c-0.97,0-1.81,0.16-2.53,0.47
		s-1.28,0.74-1.68,1.29c-0.4,0.55-0.6,1.17-0.6,1.86c0,0.58,0.14,1.08,0.42,1.5c0.28,0.42,0.64,0.76,1.08,1.03s0.9,0.5,1.39,0.67
		c0.48,0.17,0.93,0.31,1.33,0.42l2.22,0.6c0.57,0.15,1.2,0.36,1.9,0.62c0.7,0.26,1.37,0.62,2.01,1.07c0.64,0.45,1.17,1.03,1.59,1.73
		s0.63,1.57,0.63,2.59c0,1.18-0.31,2.24-0.92,3.2c-0.61,0.95-1.51,1.71-2.68,2.27c-1.18,0.56-2.6,0.84-4.28,0.84
		c-1.56,0-2.91-0.25-4.05-0.76c-1.14-0.5-2.03-1.21-2.68-2.11c-0.65-0.9-1.02-1.95-1.1-3.14h2.73c0.07,0.82,0.35,1.5,0.84,2.04
		s1.1,0.93,1.85,1.19c0.75,0.26,1.56,0.39,2.42,0.39c1.01,0,1.91-0.17,2.72-0.5c0.8-0.33,1.44-0.79,1.91-1.38
		c0.47-0.59,0.7-1.29,0.7-2.08c0-0.72-0.2-1.31-0.61-1.77c-0.41-0.45-0.94-0.82-1.6-1.11c-0.66-0.28-1.37-0.53-2.14-0.75l-2.68-0.77
		c-1.7-0.49-3.05-1.19-4.05-2.1c-0.99-0.91-1.49-2.1-1.49-3.57c0-1.22,0.33-2.29,1-3.2c0.66-0.91,1.56-1.62,2.68-2.13
		c1.13-0.51,2.38-0.76,3.78-0.76c1.41,0,2.66,0.25,3.75,0.75s1.96,1.18,2.6,2.05c0.64,0.87,0.98,1.85,1.02,2.95H682.47z"/>
	<path class="st6" d="M700.92,774.44l-2.26,0.64c-0.14-0.38-0.35-0.74-0.62-1.1s-0.64-0.66-1.11-0.89s-1.07-0.35-1.8-0.35
		c-1,0-1.83,0.23-2.5,0.69c-0.66,0.46-1,1.04-1,1.74c0,0.62,0.23,1.12,0.68,1.48c0.45,0.36,1.16,0.66,2.13,0.91l2.43,0.6
		c1.46,0.35,2.55,0.9,3.27,1.62c0.72,0.73,1.08,1.66,1.08,2.81c0,0.94-0.27,1.78-0.8,2.51c-0.54,0.74-1.28,1.32-2.24,1.75
		c-0.96,0.43-2.07,0.64-3.35,0.64c-1.67,0-3.05-0.36-4.14-1.09c-1.09-0.72-1.79-1.78-2.08-3.17l2.39-0.6
		c0.23,0.88,0.66,1.54,1.29,1.98s1.47,0.66,2.5,0.66c1.17,0,2.1-0.25,2.8-0.75s1.04-1.1,1.04-1.81c0-0.57-0.2-1.05-0.6-1.43
		c-0.4-0.39-1.01-0.68-1.83-0.87l-2.73-0.64c-1.5-0.36-2.6-0.91-3.3-1.66c-0.7-0.75-1.05-1.69-1.05-2.82c0-0.92,0.26-1.74,0.78-2.45
		s1.24-1.27,2.14-1.67c0.91-0.4,1.93-0.61,3.08-0.61c1.62,0,2.89,0.36,3.82,1.07C699.87,772.34,700.53,773.28,700.92,774.44z"/>
	<path class="st6" d="M712.6,767.67v-2.34h16.36v2.34h-6.86v19.47h-2.64v-19.47H712.6z"/>
	<path class="st6" d="M739.83,770.78v2.13h-8.48v-2.13H739.83z M733.82,766.86h2.51v15.6c0,0.71,0.1,1.24,0.31,1.59
		c0.21,0.35,0.48,0.59,0.81,0.7c0.33,0.12,0.68,0.18,1.05,0.18c0.28,0,0.5-0.02,0.68-0.05s0.32-0.06,0.43-0.08l0.51,2.26
		c-0.17,0.06-0.41,0.13-0.71,0.2c-0.31,0.07-0.69,0.1-1.16,0.1c-0.71,0-1.4-0.15-2.08-0.46s-1.24-0.77-1.68-1.4
		s-0.67-1.41-0.67-2.37V766.86z"/>
	<path class="st6" d="M766.72,765.32h2.64v14.45c0,1.49-0.35,2.82-1.05,3.99c-0.7,1.17-1.69,2.09-2.96,2.76
		c-1.27,0.67-2.76,1.01-4.47,1.01s-3.2-0.34-4.47-1.01c-1.27-0.67-2.26-1.59-2.96-2.76c-0.7-1.17-1.05-2.5-1.05-3.99v-14.45h2.64
		v14.23c0,1.07,0.23,2.01,0.7,2.84s1.14,1.48,2.01,1.95c0.87,0.47,1.91,0.71,3.13,0.71s2.26-0.24,3.13-0.71
		c0.87-0.47,1.54-1.12,2.01-1.95c0.47-0.83,0.7-1.77,0.7-2.84V765.32z"/>
	<path class="st6" d="M784.62,780.45v-9.67h2.51v16.36h-2.51v-2.77h-0.17c-0.38,0.83-0.98,1.54-1.79,2.11s-1.83,0.87-3.07,0.87
		c-1.02,0-1.93-0.23-2.73-0.68c-0.8-0.45-1.42-1.13-1.88-2.04s-0.68-2.07-0.68-3.46v-10.4h2.51V781c0,1.19,0.34,2.15,1.01,2.86
		c0.67,0.71,1.53,1.07,2.57,1.07c0.62,0,1.26-0.16,1.91-0.48s1.2-0.81,1.64-1.47C784.39,782.31,784.62,781.47,784.62,780.45z"/>
	<path class="st6" d="M488.15,801.32l6.48,18.37h0.26l6.48-18.37h2.77l-8.01,21.82h-2.73l-8.01-21.82H488.15z"/>
	<path class="st6" d="M520.58,806.78l-6.05,16.36h-2.56l-6.05-16.36h2.73l4.52,13.04h0.17l4.52-13.04H520.58z"/>
	<path class="st6" d="M536.65,823.14l-5.97-21.82h2.68l4.56,17.77h0.21l4.65-17.77h2.98l4.64,17.77h0.21l4.56-17.77h2.68
		l-5.97,21.82h-2.73l-4.81-17.39h-0.17l-4.82,17.39H536.65z"/>
	<path class="st6" d="M564.52,823.14l-4.99-16.36h2.64l3.54,12.53h0.17l3.49-12.53h2.68l3.45,12.49h0.17l3.54-12.49h2.64
		l-4.99,16.36h-2.47l-3.58-12.57h-0.26l-3.58,12.57H564.52z"/>
	<path class="st6" d="M595.24,801.32l5.62,9.08h0.17l5.62-9.08h3.11l-6.86,10.91l6.86,10.91h-3.11l-5.62-8.91h-0.17l-5.62,8.91
		h-3.11l7.03-10.91l-7.03-10.91H595.24z"/>
	<path class="st6" d="M614.76,806.78l3.92,6.69l3.92-6.69h2.9l-5.28,8.18l5.28,8.18h-2.9l-3.92-6.35l-3.92,6.35h-2.9l5.2-8.18
		l-5.2-8.18H614.76z"/>
	<path class="st6" d="M635.98,801.32h3.03l6.05,10.18h0.26l6.05-10.18h3.03l-7.88,12.83v8.99h-2.64v-8.99L635.98,801.32z"/>
	<path class="st6" d="M659.08,829.23c-0.43,0-0.81-0.03-1.14-0.1c-0.33-0.07-0.56-0.13-0.69-0.2l0.64-2.22
		c0.92,0.23,1.68,0.23,2.29-0.02s1.14-0.98,1.59-2.2l0.47-1.28l-6.05-16.45h2.73l4.52,13.04h0.17l4.52-13.04l2.75,0.04l-6.97,18.71
		c-0.31,0.83-0.7,1.52-1.16,2.07c-0.46,0.55-1,0.96-1.6,1.23C660.52,829.1,659.84,829.23,659.08,829.23z"/>
	<path class="st6" d="M682.24,823.14v-1.92L694,803.67h-11.89v-2.34h15.04v1.92l-11.76,17.56h11.89v2.34H682.24z"/>
	<path class="st6" d="M700.9,823.14v-1.92l9.29-11.93v-0.17h-8.99v-2.34h12.23v2l-9.03,11.85v0.17h9.33v2.34H700.9z"/>
	<path class="st6" d="M494.55,873.32v21.82h-2.64v-19.05h-0.13l-5.33,3.54v-2.68l5.45-3.62H494.55z"/>
	<path class="st6" d="M509.25,895.14v-1.92l7.2-7.88c0.84-0.92,1.54-1.73,2.09-2.41s0.95-1.33,1.22-1.94
		c0.27-0.61,0.4-1.24,0.4-1.91c0-0.77-0.18-1.43-0.55-1.99c-0.37-0.56-0.86-0.99-1.5-1.3c-0.63-0.3-1.34-0.46-2.13-0.46
		c-0.84,0-1.57,0.17-2.19,0.52c-0.62,0.34-1.1,0.83-1.44,1.44c-0.34,0.62-0.51,1.34-0.51,2.17h-2.51c0-1.28,0.29-2.4,0.88-3.37
		c0.59-0.97,1.39-1.72,2.41-2.26c1.02-0.54,2.16-0.81,3.44-0.81c1.28,0,2.41,0.27,3.4,0.81s1.76,1.27,2.32,2.18s0.84,1.94,0.84,3.06
		c0,0.8-0.14,1.59-0.43,2.35c-0.29,0.76-0.78,1.61-1.49,2.55c-0.71,0.93-1.69,2.07-2.94,3.41l-4.9,5.24v0.17h10.14v2.34H509.25z"/>
	<path class="st6" d="M543.21,895.44c-1.41,0-2.66-0.24-3.76-0.72c-1.1-0.48-1.97-1.16-2.61-2.02c-0.64-0.86-0.99-1.87-1.05-3.01
		h2.68c0.06,0.7,0.3,1.31,0.72,1.82s0.98,0.9,1.67,1.18s1.45,0.42,2.29,0.42c0.94,0,1.77-0.16,2.49-0.49
		c0.72-0.33,1.29-0.78,1.7-1.36c0.41-0.58,0.62-1.26,0.62-2.02c0-0.8-0.2-1.51-0.6-2.13c-0.4-0.61-0.98-1.1-1.75-1.44
		s-1.7-0.52-2.81-0.52h-1.75v-2.34h1.75c0.87,0,1.63-0.16,2.29-0.47c0.66-0.31,1.17-0.75,1.54-1.32c0.37-0.57,0.56-1.24,0.56-2
		c0-0.74-0.16-1.38-0.49-1.93c-0.33-0.55-0.79-0.97-1.38-1.28c-0.59-0.3-1.29-0.46-2.09-0.46c-0.75,0-1.46,0.14-2.13,0.41
		s-1.21,0.67-1.62,1.18c-0.42,0.51-0.65,1.13-0.68,1.86h-2.56c0.04-1.14,0.39-2.15,1.03-3.01c0.65-0.86,1.49-1.54,2.54-2.02
		c1.05-0.48,2.2-0.72,3.46-0.72c1.35,0,2.51,0.27,3.47,0.81c0.97,0.54,1.71,1.26,2.23,2.15c0.52,0.89,0.78,1.85,0.78,2.88
		c0,1.23-0.32,2.28-0.96,3.14c-0.64,0.87-1.51,1.47-2.62,1.8v0.17c1.38,0.23,2.45,0.81,3.23,1.75c0.77,0.94,1.16,2.1,1.16,3.49
		c0,1.19-0.32,2.25-0.96,3.19c-0.64,0.94-1.52,1.68-2.63,2.22C545.88,895.17,544.62,895.44,543.21,895.44z"/>
	<path class="st6" d="M562.86,890.67v-2.17l9.59-15.17h1.58v3.37h-1.07l-7.24,11.46v0.17h12.91v2.34H562.86z M573.13,895.14V890
		v-1.01v-15.67h2.51v21.82H573.13z"/>
	<path class="st6" d="M597.88,895.44c-1.25,0-2.38-0.25-3.38-0.75s-1.8-1.18-2.41-2.05c-0.6-0.87-0.93-1.85-0.99-2.96h2.56
		c0.1,0.99,0.55,1.8,1.35,2.44s1.76,0.96,2.87,0.96c0.9,0,1.69-0.21,2.39-0.63s1.25-1,1.65-1.73s0.6-1.57,0.6-2.5
		c0-0.95-0.21-1.8-0.62-2.55c-0.42-0.75-0.99-1.34-1.71-1.77c-0.72-0.43-1.55-0.65-2.48-0.66c-0.67-0.01-1.35,0.09-2.06,0.3
		c-0.7,0.21-1.28,0.48-1.74,0.8l-2.47-0.3l1.32-10.74h11.34v2.34h-9.12l-0.77,6.43h0.13c0.45-0.35,1.01-0.65,1.68-0.88
		c0.67-0.23,1.38-0.35,2.11-0.35c1.33,0,2.53,0.32,3.57,0.95c1.05,0.64,1.87,1.5,2.47,2.6c0.6,1.1,0.9,2.36,0.9,3.77
		c0,1.39-0.31,2.63-0.93,3.72s-1.48,1.95-2.56,2.58C600.5,895.12,599.27,895.44,597.88,895.44z"/>
	<path class="st6" d="M624.99,895.44c-0.9-0.01-1.79-0.18-2.68-0.51c-0.9-0.33-1.71-0.88-2.45-1.66c-0.74-0.78-1.33-1.83-1.78-3.16
		c-0.45-1.33-0.67-3.01-0.67-5.02c0-1.94,0.18-3.66,0.54-5.16c0.36-1.5,0.89-2.77,1.58-3.8c0.69-1.03,1.52-1.81,2.5-2.34
		c0.98-0.53,2.08-0.8,3.31-0.8c1.22,0,2.31,0.25,3.27,0.74s1.73,1.17,2.34,2.04s0.99,1.88,1.17,3.02h-2.6
		c-0.24-1-0.71-1.83-1.41-2.48c-0.7-0.65-1.62-0.97-2.77-0.97c-1.69,0-3.02,0.74-3.99,2.21c-0.97,1.47-1.46,3.55-1.46,6.23h0.17
		c0.4-0.6,0.87-1.12,1.42-1.55s1.16-0.76,1.83-1c0.67-0.23,1.37-0.35,2.12-0.35c1.25,0,2.39,0.31,3.43,0.93
		c1.04,0.62,1.87,1.48,2.49,2.57c0.62,1.09,0.94,2.34,0.94,3.75c0,1.35-0.3,2.58-0.91,3.7c-0.6,1.12-1.45,2.01-2.54,2.66
		C627.74,895.13,626.46,895.45,624.99,895.44z M624.99,893.09c0.9,0,1.7-0.22,2.41-0.67c0.71-0.45,1.28-1.05,1.69-1.8
		s0.62-1.59,0.62-2.51c0-0.9-0.2-1.72-0.6-2.47s-0.95-1.33-1.65-1.77c-0.7-0.44-1.5-0.66-2.39-0.66c-0.67,0-1.3,0.13-1.89,0.4
		c-0.58,0.27-1.09,0.63-1.53,1.09c-0.44,0.46-0.78,0.99-1.03,1.58s-0.37,1.22-0.37,1.87c0,0.87,0.2,1.68,0.61,2.43
		c0.41,0.75,0.97,1.36,1.68,1.82C623.27,892.86,624.08,893.09,624.99,893.09z"/>
	<path class="st6" d="M645.57,895.14l9.76-19.3v-0.17h-11.25v-2.34h13.98v2.47l-9.72,19.35H645.57z"/>
	<path class="st6" d="M677.44,895.44c-1.46,0-2.75-0.26-3.87-0.78c-1.12-0.52-1.99-1.24-2.62-2.16s-0.93-1.97-0.93-3.15
		c-0.01-0.92,0.17-1.78,0.54-2.56c0.37-0.79,0.88-1.44,1.52-1.97c0.64-0.53,1.36-0.87,2.16-1.01v-0.13
		c-1.04-0.27-1.88-0.86-2.49-1.76c-0.62-0.91-0.92-1.94-0.92-3.09c-0.01-1.11,0.27-2.1,0.84-2.97c0.57-0.87,1.35-1.56,2.35-2.07
		c1-0.5,2.14-0.76,3.41-0.76c1.26,0,2.39,0.25,3.39,0.76c0.99,0.5,1.78,1.19,2.35,2.07c0.57,0.87,0.86,1.86,0.87,2.97
		c-0.01,1.16-0.32,2.19-0.94,3.09c-0.62,0.91-1.44,1.49-2.47,1.76v0.13c0.79,0.14,1.5,0.48,2.13,1.01s1.14,1.19,1.51,1.97
		s0.57,1.64,0.58,2.56c-0.01,1.18-0.33,2.23-0.95,3.15s-1.5,1.64-2.61,2.16C680.18,895.18,678.9,895.44,677.44,895.44z
		 M677.44,893.09c0.99,0,1.84-0.16,2.56-0.48c0.72-0.32,1.27-0.77,1.66-1.35c0.39-0.58,0.59-1.26,0.6-2.04
		c-0.01-0.82-0.22-1.55-0.64-2.18c-0.42-0.63-0.99-1.13-1.71-1.49s-1.54-0.54-2.47-0.54c-0.93,0-1.76,0.18-2.49,0.54
		c-0.73,0.36-1.3,0.86-1.72,1.49c-0.42,0.63-0.62,1.36-0.61,2.18c-0.01,0.78,0.18,1.46,0.57,2.04c0.39,0.58,0.94,1.03,1.67,1.35
		C675.59,892.93,676.45,893.09,677.44,893.09z M677.44,882.74c0.78,0,1.48-0.16,2.08-0.47c0.61-0.31,1.08-0.75,1.43-1.31
		c0.35-0.56,0.53-1.22,0.53-1.97c-0.01-0.74-0.18-1.38-0.52-1.93s-0.81-0.98-1.42-1.28s-1.31-0.45-2.11-0.45
		c-0.82,0-1.53,0.15-2.14,0.45s-1.08,0.73-1.42,1.28c-0.33,0.55-0.5,1.2-0.49,1.93c-0.01,0.75,0.16,1.41,0.51,1.97
		c0.34,0.56,0.82,1,1.43,1.31S676.65,882.74,677.44,882.74z"/>
	<path class="st6" d="M704.33,872.98c0.9,0.01,1.79,0.18,2.68,0.51s1.71,0.89,2.45,1.66c0.74,0.77,1.33,1.83,1.78,3.16
		s0.67,3.01,0.67,5.02c0,1.94-0.18,3.66-0.55,5.16c-0.37,1.5-0.89,2.77-1.58,3.8c-0.69,1.03-1.52,1.81-2.49,2.34
		c-0.98,0.53-2.08,0.8-3.31,0.8c-1.22,0-2.31-0.24-3.27-0.73c-0.96-0.49-1.74-1.16-2.34-2.03c-0.61-0.87-1-1.88-1.17-3.03h2.6
		c0.23,1,0.7,1.83,1.4,2.48c0.7,0.65,1.62,0.97,2.78,0.97c1.68,0,3.01-0.73,3.99-2.21c0.98-1.47,1.46-3.55,1.46-6.23h-0.17
		c-0.4,0.6-0.87,1.11-1.42,1.54c-0.55,0.43-1.15,0.77-1.82,1c-0.67,0.23-1.38,0.35-2.13,0.35c-1.25,0-2.4-0.31-3.44-0.93
		c-1.04-0.62-1.87-1.48-2.49-2.57c-0.62-1.09-0.93-2.34-0.93-3.74c0-1.35,0.3-2.58,0.9-3.7s1.45-2,2.54-2.66
		C701.57,873.29,702.85,872.97,704.33,872.98z M704.33,875.32c-0.9,0-1.7,0.22-2.41,0.67c-0.71,0.45-1.28,1.05-1.69,1.8
		s-0.62,1.59-0.62,2.51c0,0.91,0.2,1.73,0.6,2.48s0.95,1.33,1.65,1.77s1.5,0.66,2.39,0.66c0.67,0,1.3-0.13,1.89-0.4
		c0.58-0.27,1.09-0.63,1.53-1.1c0.44-0.46,0.78-0.99,1.03-1.59c0.25-0.59,0.37-1.21,0.37-1.86c0-0.87-0.2-1.68-0.61-2.43
		c-0.41-0.75-0.97-1.36-1.68-1.82C706.05,875.56,705.24,875.32,704.33,875.32z"/>
	<path class="st6" d="M731.65,895.44c-1.6,0-2.97-0.44-4.1-1.32s-1.99-2.15-2.59-3.82s-0.9-3.7-0.9-6.07c0-2.36,0.3-4.37,0.9-6.05
		s1.47-2.95,2.6-3.83c1.13-0.88,2.49-1.33,4.09-1.33s2.95,0.44,4.09,1.33c1.13,0.88,2,2.16,2.6,3.83s0.9,3.69,0.9,6.05
		c0,2.37-0.3,4.39-0.9,6.07s-1.46,2.95-2.59,3.82S733.25,895.44,731.65,895.44z M731.65,893.09c1.59,0,2.83-0.77,3.71-2.3
		c0.88-1.53,1.32-3.72,1.32-6.56c0-1.89-0.2-3.5-0.6-4.83c-0.4-1.33-0.98-2.34-1.73-3.04c-0.75-0.7-1.65-1.04-2.7-1.04
		c-1.58,0-2.81,0.78-3.7,2.33s-1.33,3.74-1.33,6.58c0,1.89,0.2,3.49,0.6,4.82c0.4,1.32,0.97,2.33,1.72,3.01
		C729.68,892.75,730.59,893.09,731.65,893.09z"/>
	<path class="st6" d="M487.81,956.23c0-2.68,0.35-5.15,1.05-7.41c0.7-2.25,1.7-4.33,3-6.23h2.22c-0.51,0.7-0.99,1.57-1.43,2.59
		s-0.83,2.15-1.17,3.38c-0.33,1.23-0.6,2.49-0.78,3.8s-0.28,2.6-0.28,3.87c0,1.69,0.16,3.41,0.49,5.15s0.77,3.36,1.32,4.85
		c0.55,1.49,1.17,2.71,1.85,3.64h-2.22c-1.3-1.9-2.3-3.97-3-6.23C488.16,961.38,487.81,958.92,487.81,956.23z"/>
	<path class="st6" d="M499.66,967.31c-0.53,0-0.98-0.19-1.35-0.57c-0.38-0.38-0.56-0.83-0.56-1.35s0.19-0.98,0.56-1.35
		c0.38-0.38,0.83-0.56,1.35-0.56c0.53,0,0.98,0.19,1.35,0.56c0.38,0.38,0.56,0.83,0.56,1.35c0,0.35-0.09,0.67-0.26,0.96
		c-0.17,0.29-0.4,0.52-0.69,0.7S500.02,967.31,499.66,967.31z M501.11,945.32L500.9,961h-2.47l-0.21-15.68H501.11z"/>
	<path class="st6" d="M509.42,961v-0.13c0.01-1.36,0.16-2.44,0.43-3.24s0.65-1.45,1.15-1.95s1.09-0.96,1.79-1.38
		c0.42-0.25,0.8-0.56,1.13-0.91s0.6-0.76,0.79-1.22c0.2-0.46,0.29-0.97,0.29-1.53c0-0.7-0.16-1.3-0.49-1.81
		c-0.33-0.51-0.76-0.91-1.31-1.18c-0.55-0.28-1.15-0.42-1.82-0.42c-0.58,0-1.14,0.12-1.68,0.36c-0.54,0.24-0.99,0.62-1.35,1.14
		s-0.57,1.2-0.63,2.04h-2.68c0.06-1.21,0.37-2.24,0.94-3.1c0.57-0.86,1.33-1.52,2.27-1.97c0.94-0.45,1.99-0.68,3.14-0.68
		c1.25,0,2.34,0.25,3.27,0.75c0.93,0.5,1.64,1.18,2.15,2.05s0.76,1.85,0.76,2.96c0,0.78-0.12,1.49-0.36,2.12
		c-0.24,0.63-0.58,1.2-1.02,1.69s-0.98,0.94-1.6,1.32c-0.62,0.39-1.13,0.8-1.5,1.23s-0.65,0.94-0.82,1.53
		c-0.17,0.59-0.26,1.33-0.28,2.21V961H509.42z M510.78,967.31c-0.53,0-0.98-0.19-1.35-0.57c-0.38-0.38-0.56-0.83-0.56-1.35
		s0.19-0.98,0.56-1.35c0.38-0.38,0.83-0.56,1.35-0.56c0.53,0,0.98,0.19,1.35,0.56c0.38,0.38,0.56,0.83,0.56,1.35
		c0,0.35-0.09,0.67-0.26,0.96s-0.4,0.52-0.69,0.7S511.14,967.31,510.78,967.31z"/>
	<path class="st6" d="M526.72,956.23c0,2.68-0.35,5.15-1.05,7.41c-0.7,2.26-1.7,4.33-3,6.23h-2.22c0.51-0.7,0.99-1.57,1.43-2.59
		c0.44-1.03,0.83-2.15,1.17-3.38c0.33-1.22,0.59-2.49,0.78-3.8c0.19-1.31,0.28-2.6,0.28-3.86c0-1.69-0.16-3.41-0.49-5.15
		s-0.77-3.36-1.32-4.85c-0.55-1.49-1.17-2.71-1.85-3.64h2.22c1.3,1.9,2.3,3.97,3,6.23C526.37,951.08,526.72,953.55,526.72,956.23z"
		/>
	<path class="st6" d="M544.49,950.78c-0.13-1.08-0.65-1.92-1.56-2.51s-2.02-0.89-3.35-0.89c-0.97,0-1.81,0.16-2.53,0.47
		s-1.28,0.74-1.68,1.29c-0.4,0.55-0.6,1.17-0.6,1.86c0,0.58,0.14,1.08,0.42,1.5c0.28,0.42,0.64,0.76,1.08,1.03s0.9,0.5,1.39,0.67
		c0.48,0.17,0.93,0.31,1.33,0.42l2.22,0.6c0.57,0.15,1.2,0.36,1.9,0.62c0.7,0.26,1.37,0.62,2.01,1.07c0.64,0.45,1.17,1.03,1.59,1.73
		s0.63,1.57,0.63,2.59c0,1.18-0.31,2.24-0.92,3.2c-0.61,0.95-1.51,1.71-2.68,2.27c-1.18,0.56-2.6,0.84-4.28,0.84
		c-1.56,0-2.91-0.25-4.05-0.76c-1.14-0.5-2.03-1.21-2.68-2.11c-0.65-0.9-1.02-1.95-1.1-3.14h2.73c0.07,0.82,0.35,1.5,0.84,2.04
		s1.1,0.93,1.85,1.19c0.75,0.26,1.56,0.39,2.42,0.39c1.01,0,1.91-0.17,2.72-0.5c0.8-0.33,1.44-0.79,1.91-1.38
		c0.47-0.59,0.7-1.29,0.7-2.08c0-0.72-0.2-1.31-0.61-1.77c-0.41-0.45-0.94-0.82-1.6-1.11c-0.66-0.28-1.37-0.53-2.14-0.75l-2.68-0.77
		c-1.7-0.49-3.05-1.19-4.05-2.1c-0.99-0.91-1.49-2.1-1.49-3.57c0-1.22,0.33-2.29,1-3.2c0.66-0.91,1.56-1.62,2.68-2.13
		c1.13-0.51,2.38-0.76,3.78-0.76c1.41,0,2.66,0.25,3.75,0.75s1.96,1.18,2.6,2.05c0.64,0.87,0.98,1.85,1.02,2.95H544.49z
		 M538.61,969.87v-27.27h1.75v27.27H538.61z"/>
	<path class="st6" d="M550.16,956.27v-1.32c1.19,0,2.02-0.25,2.49-0.75c0.47-0.5,0.71-1.33,0.71-2.49v-3.41
		c0-0.98,0.09-1.83,0.28-2.55c0.19-0.72,0.5-1.31,0.92-1.78s0.99-0.82,1.7-1.04c0.71-0.23,1.59-0.34,2.63-0.34v2.09
		c-0.82,0-1.47,0.13-1.94,0.38c-0.47,0.26-0.81,0.65-1,1.19s-0.29,1.22-0.29,2.05v4.26c0,0.55-0.07,1.06-0.22,1.51
		c-0.15,0.46-0.41,0.85-0.8,1.17c-0.39,0.33-0.95,0.58-1.67,0.76S551.31,956.27,550.16,956.27z M550.16,957.51v-2.56h2.51v2.56
		H550.16z M558.89,969.87c-1.04,0-1.92-0.11-2.63-0.34c-0.71-0.23-1.28-0.58-1.7-1.04s-0.73-1.06-0.92-1.78
		c-0.19-0.72-0.28-1.57-0.28-2.55v-3.41c0-1.17-0.24-2-0.71-2.49c-0.47-0.5-1.3-0.75-2.49-0.75v-1.32c1.15,0,2.09,0.09,2.81,0.27
		s1.28,0.43,1.67,0.76c0.39,0.33,0.66,0.72,0.8,1.17c0.15,0.45,0.22,0.96,0.22,1.51v4.26c0,0.83,0.1,1.51,0.29,2.05
		s0.53,0.93,1,1.19c0.47,0.26,1.12,0.39,1.94,0.39V969.87z"/>
	<path class="st6" d="M560.94,942.59c1.04,0,1.92,0.11,2.63,0.34c0.71,0.23,1.28,0.58,1.7,1.04c0.43,0.47,0.73,1.06,0.92,1.78
		c0.19,0.72,0.28,1.57,0.28,2.55v3.41c0,1.16,0.24,2,0.71,2.49c0.47,0.5,1.3,0.75,2.49,0.75v1.32c-1.15,0-2.09-0.09-2.81-0.27
		s-1.28-0.43-1.67-0.76c-0.39-0.33-0.66-0.72-0.8-1.17c-0.15-0.45-0.22-0.96-0.22-1.51v-4.26c0-0.83-0.1-1.51-0.29-2.05
		s-0.53-0.93-1-1.19c-0.47-0.25-1.12-0.38-1.94-0.38V942.59z M569.67,956.19v1.32c-1.19,0-2.02,0.25-2.49,0.75
		c-0.47,0.5-0.71,1.33-0.71,2.49v3.41c0,0.98-0.09,1.83-0.28,2.55c-0.19,0.72-0.5,1.31-0.92,1.78c-0.43,0.47-0.99,0.82-1.7,1.04
		c-0.71,0.23-1.59,0.34-2.63,0.34v-2.09c0.82,0,1.47-0.13,1.94-0.39c0.47-0.26,0.81-0.66,1-1.19s0.29-1.21,0.29-2.05v-4.26
		c0-0.55,0.07-1.06,0.22-1.51c0.15-0.46,0.41-0.85,0.8-1.17c0.39-0.33,0.95-0.58,1.67-0.76S568.52,956.19,569.67,956.19z
		 M569.67,954.95v2.56h-2.51v-2.56H569.67z"/>
	<path class="st6" d="M580.8,944.3l-7.03,26.12h-2.3l7.03-26.12H580.8z"/>
	<path class="st6" d="M585.01,969.87v-27.27h6.31v2.09h-3.92v23.1h3.92v2.09H585.01z"/>
	<path class="st6" d="M599.67,942.59v27.27h-6.31v-2.09h3.92v-23.1h-3.92v-2.09H599.67z"/>
	<path class="st6" d="M606.23,957.42v-1.71l13.72-6.99v2.73l-10.53,5.07l0.08-0.17v0.43l-0.08-0.17l10.53,5.07v2.73L606.23,957.42z"
		/>
	<path class="st6" d="M639.73,957.42l-13.72,6.99v-2.73l10.53-5.07l-0.09,0.17v-0.43l0.09,0.17l-10.53-5.07v-2.73l13.72,6.99V957.42
		z"/>
	<path class="st6" d="M657.63,969.7c-2.17,0-4.09-0.3-5.76-0.89c-1.67-0.59-3.07-1.46-4.21-2.62s-2-2.56-2.58-4.23
		c-0.58-1.67-0.87-3.58-0.87-5.73c0-2.08,0.3-3.94,0.89-5.58c0.59-1.64,1.46-3.03,2.59-4.18s2.51-2.02,4.13-2.63
		s3.46-0.91,5.51-0.91c2,0,3.74,0.32,5.25,0.97c1.5,0.65,2.76,1.53,3.77,2.63c1.01,1.1,1.77,2.35,2.28,3.72s0.76,2.8,0.76,4.26
		c0,1.03-0.05,2.07-0.15,3.13s-0.31,2.03-0.63,2.91c-0.32,0.88-0.81,1.6-1.48,2.14s-1.56,0.81-2.69,0.81c-0.5,0-1.04-0.08-1.64-0.23
		s-1.13-0.42-1.59-0.78c-0.46-0.36-0.74-0.85-0.82-1.46h-0.13c-0.17,0.41-0.43,0.8-0.78,1.17s-0.81,0.66-1.37,0.88
		c-0.56,0.22-1.25,0.32-2.06,0.29c-0.92-0.04-1.74-0.24-2.44-0.62s-1.29-0.9-1.76-1.56c-0.47-0.66-0.83-1.42-1.07-2.29
		c-0.24-0.87-0.36-1.81-0.36-2.82c0-0.96,0.14-1.84,0.43-2.63c0.28-0.8,0.68-1.49,1.19-2.09c0.51-0.6,1.1-1.07,1.79-1.43
		c0.69-0.36,1.43-0.58,2.22-0.67c0.71-0.07,1.36-0.04,1.94,0.09c0.58,0.13,1.06,0.33,1.44,0.59c0.38,0.26,0.61,0.54,0.71,0.86h0.13
		v-1.19h2.26v9.63c0,0.6,0.17,1.12,0.5,1.58c0.33,0.45,0.82,0.68,1.46,0.68c0.72,0,1.28-0.25,1.67-0.75c0.39-0.5,0.65-1.26,0.8-2.3
		s0.22-2.37,0.22-3.98c0-0.95-0.13-1.89-0.39-2.82c-0.26-0.93-0.65-1.8-1.17-2.61s-1.18-1.52-1.98-2.14c-0.8-0.62-1.73-1.1-2.8-1.46
		s-2.28-0.53-3.64-0.53c-1.67,0-3.16,0.26-4.48,0.77c-1.32,0.52-2.44,1.26-3.36,2.25c-0.92,0.98-1.62,2.18-2.1,3.58
		c-0.48,1.4-0.72,3-0.72,4.78c0,1.81,0.24,3.42,0.72,4.83s1.19,2.59,2.13,3.56c0.94,0.97,2.11,1.7,3.5,2.2
		c1.39,0.5,3,0.75,4.82,0.75c0.78,0,1.55-0.08,2.31-0.22c0.76-0.15,1.43-0.31,2.01-0.49c0.58-0.18,1-0.31,1.26-0.39l0.6,1.96
		c-0.44,0.18-1.01,0.37-1.72,0.55c-0.71,0.18-1.46,0.34-2.26,0.46C659.11,969.64,658.35,969.7,657.63,969.7z M656.39,961.22
		c0.95,0,1.72-0.19,2.31-0.58c0.59-0.38,1.02-0.96,1.29-1.74c0.27-0.77,0.4-1.75,0.4-2.93c0-1.19-0.15-2.12-0.45-2.79
		c-0.3-0.67-0.74-1.14-1.32-1.41c-0.58-0.27-1.3-0.4-2.15-0.4c-0.81,0-1.5,0.21-2.07,0.63c-0.57,0.42-1.01,0.98-1.31,1.68
		c-0.3,0.7-0.45,1.46-0.45,2.29c0,0.91,0.12,1.76,0.36,2.56c0.24,0.8,0.64,1.45,1.18,1.94
		C654.73,960.97,655.47,961.22,656.39,961.22z"/>
	<path class="st6" d="M671.35,961.09l0.34-2.13h16.28l-0.34,2.13H671.35z M672.63,953.5l0.34-2.13h16.28l-0.34,2.13H672.63z
		 M673.61,967.14l3.58-21.82h2.13l-3.58,21.82H673.61z M681.28,967.14l3.58-21.82h2.13l-3.58,21.82H681.28z"/>
	<path class="st6" d="M692.27,950.56v-1.15c0-0.79,0.17-1.52,0.5-2.19c0.33-0.66,0.81-1.2,1.45-1.6c0.64-0.4,1.41-0.6,2.32-0.6
		c0.92,0,1.7,0.2,2.32,0.6c0.62,0.4,1.1,0.93,1.42,1.6c0.32,0.67,0.48,1.39,0.48,2.19v1.15c0,0.8-0.16,1.53-0.48,2.19
		c-0.32,0.66-0.8,1.2-1.43,1.6s-1.4,0.6-2.31,0.6c-0.92,0-1.7-0.2-2.33-0.6s-1.11-0.93-1.44-1.6S692.27,951.36,692.27,950.56z
		 M693.08,967.14l15-21.82h2.43l-15,21.82H693.08z M694.44,949.41v1.15c0,0.66,0.16,1.25,0.47,1.77c0.31,0.52,0.85,0.78,1.62,0.78
		c0.75,0,1.27-0.26,1.58-0.78c0.31-0.52,0.46-1.11,0.46-1.77v-1.15c0-0.66-0.15-1.25-0.45-1.77c-0.3-0.52-0.83-0.78-1.6-0.78
		c-0.75,0-1.28,0.26-1.6,0.78C694.61,948.16,694.44,948.75,694.44,949.41z M703.14,963.05v-1.15c0-0.8,0.17-1.53,0.5-2.19
		c0.33-0.66,0.81-1.2,1.45-1.6c0.64-0.4,1.41-0.6,2.32-0.6c0.92,0,1.7,0.2,2.32,0.6s1.1,0.93,1.42,1.6
		c0.32,0.66,0.48,1.39,0.48,2.19v1.15c0,0.8-0.16,1.53-0.48,2.19s-0.8,1.2-1.43,1.6c-0.63,0.4-1.4,0.6-2.31,0.6
		c-0.92,0-1.7-0.2-2.33-0.6c-0.63-0.4-1.11-0.93-1.44-1.6S703.14,963.84,703.14,963.05z M705.31,961.9v1.15
		c0,0.66,0.16,1.25,0.47,1.77c0.31,0.52,0.85,0.78,1.62,0.78c0.75,0,1.27-0.26,1.58-0.78c0.31-0.52,0.46-1.11,0.46-1.77v-1.15
		c0-0.66-0.15-1.25-0.45-1.77c-0.3-0.52-0.83-0.78-1.6-0.78c-0.75,0-1.28,0.26-1.6,0.78C705.47,960.65,705.31,961.24,705.31,961.9z"
		/>
	<path class="st6" d="M722.61,967.44c-1.43,0-2.67-0.26-3.71-0.79c-1.04-0.53-1.84-1.25-2.4-2.16c-0.56-0.92-0.84-1.96-0.84-3.14
		c0-0.91,0.19-1.72,0.58-2.42c0.39-0.71,0.92-1.36,1.61-1.97c0.69-0.61,1.48-1.22,2.37-1.83l3.15-2.34c0.62-0.41,1.11-0.84,1.49-1.3
		c0.37-0.46,0.56-1.07,0.56-1.81c0-0.55-0.24-1.09-0.73-1.61c-0.49-0.52-1.12-0.78-1.91-0.78c-0.55,0-1.04,0.14-1.46,0.42
		c-0.42,0.28-0.75,0.64-0.99,1.07s-0.36,0.87-0.36,1.33c0,0.51,0.14,1.03,0.42,1.55c0.28,0.52,0.64,1.05,1.08,1.6
		c0.44,0.54,0.89,1.1,1.36,1.67l10.01,12.23h-3.03l-8.27-9.97c-0.77-0.92-1.46-1.76-2.09-2.51s-1.12-1.5-1.49-2.23
		c-0.37-0.73-0.55-1.52-0.55-2.38c0-0.98,0.22-1.84,0.66-2.58c0.44-0.74,1.05-1.32,1.84-1.74c0.79-0.42,1.72-0.62,2.79-0.62
		c1.09,0,2.03,0.21,2.82,0.63c0.79,0.42,1.4,0.98,1.82,1.67c0.43,0.69,0.64,1.44,0.64,2.25c0,1.04-0.26,1.95-0.78,2.72
		c-0.52,0.77-1.23,1.48-2.12,2.14l-4.35,3.24c-0.98,0.72-1.64,1.43-1.99,2.11s-0.52,1.17-0.52,1.47c0,0.68,0.18,1.32,0.53,1.91
		c0.35,0.59,0.86,1.07,1.5,1.43c0.65,0.36,1.4,0.54,2.27,0.54c0.82,0,1.63-0.18,2.41-0.53c0.78-0.35,1.49-0.86,2.12-1.53
		s1.14-1.47,1.51-2.41c0.37-0.94,0.56-1.99,0.56-3.16h2.43c0,1.45-0.17,2.63-0.5,3.55s-0.71,1.63-1.13,2.15s-0.76,0.91-1.01,1.16
		c-0.09,0.11-0.16,0.21-0.23,0.32c-0.07,0.11-0.15,0.21-0.23,0.32c-0.7,0.79-1.59,1.38-2.66,1.76S723.66,967.44,722.61,967.44z"/>
	<path class="st6" d="M739.78,957.59l0.17-4.69l-3.96,2.51l-1.02-1.79l4.18-2.17l-4.18-2.17l1.02-1.79l3.96,2.51l-0.17-4.69h2.05
		l-0.17,4.69l3.96-2.51l1.02,1.79l-4.18,2.17l4.18,2.17l-1.02,1.79l-3.96-2.51l0.17,4.69H739.78z"/>
</g>
<g>
	<path class="st6" d="M179.58,576.85v-3.31h17.41v3.31h-6.74v18.5h-3.92v-18.5H179.58z"/>
	<path class="st6" d="M211.73,573.54v21.82h-3.95v-21.82H211.73z"/>
	<path class="st6" d="M223.47,595.36v-21.82h8.18c1.68,0,3.08,0.31,4.22,0.94c1.14,0.62,2,1.48,2.59,2.57
		c0.59,1.09,0.88,2.33,0.88,3.71c0,1.4-0.29,2.64-0.88,3.73c-0.59,1.09-1.46,1.94-2.61,2.56c-1.15,0.62-2.57,0.93-4.25,0.93h-5.42
		v-3.25h4.89c0.98,0,1.78-0.17,2.41-0.51c0.62-0.34,1.09-0.81,1.39-1.41c0.3-0.6,0.45-1.28,0.45-2.06c0-0.77-0.15-1.46-0.45-2.05
		c-0.3-0.59-0.77-1.05-1.4-1.38c-0.63-0.33-1.44-0.5-2.42-0.5h-3.62v18.52H223.47z"/>
	<path class="st6" d="M269.71,584.45c0,2.35-0.44,4.36-1.32,6.04c-0.88,1.67-2.07,2.95-3.58,3.84s-3.22,1.33-5.13,1.33
		c-1.91,0-3.62-0.45-5.13-1.34c-1.51-0.89-2.7-2.17-3.58-3.85c-0.88-1.67-1.32-3.68-1.32-6.02c0-2.35,0.44-4.36,1.32-6.04
		c0.88-1.67,2.07-2.95,3.58-3.84c1.51-0.89,3.22-1.33,5.13-1.33c1.91,0,3.62,0.44,5.13,1.33c1.51,0.89,2.7,2.17,3.58,3.84
		C269.27,580.09,269.71,582.1,269.71,584.45z M265.74,584.45c0-1.65-0.26-3.05-0.77-4.19c-0.52-1.14-1.23-2-2.14-2.59
		s-1.96-0.88-3.14-0.88c-1.19,0-2.23,0.29-3.14,0.88s-1.62,1.45-2.14,2.59c-0.52,1.14-0.77,2.54-0.77,4.19
		c0,1.66,0.26,3.05,0.77,4.19c0.51,1.14,1.23,2,2.14,2.59s1.96,0.88,3.14,0.88c1.19,0,2.23-0.29,3.14-0.88s1.62-1.45,2.14-2.59
		C265.48,587.5,265.74,586.1,265.74,584.45z"/>
	<path class="st6" d="M295.52,580.51c-0.18-0.58-0.42-1.09-0.73-1.55c-0.31-0.46-0.68-0.85-1.11-1.18
		c-0.43-0.33-0.92-0.57-1.48-0.74c-0.55-0.17-1.16-0.25-1.81-0.25c-1.17,0-2.22,0.29-3.13,0.88c-0.92,0.59-1.64,1.45-2.16,2.59
		c-0.52,1.14-0.78,2.53-0.78,4.16c0,1.65,0.26,3.04,0.78,4.19c0.52,1.14,1.24,2.01,2.16,2.6c0.92,0.59,2,0.89,3.22,0.89
		c1.11,0,2.07-0.21,2.88-0.64c0.81-0.43,1.44-1.03,1.88-1.82c0.44-0.78,0.66-1.71,0.66-2.76l0.9,0.14h-5.92v-3.09h8.85v2.62
		c0,1.87-0.4,3.48-1.19,4.85c-0.8,1.36-1.89,2.41-3.28,3.15c-1.39,0.74-2.99,1.1-4.79,1.1c-2.01,0-3.77-0.45-5.29-1.36
		c-1.52-0.91-2.7-2.2-3.55-3.87c-0.85-1.67-1.27-3.66-1.27-5.96c0-1.76,0.25-3.33,0.75-4.72c0.5-1.38,1.2-2.56,2.1-3.53
		s1.96-1.71,3.17-2.22s2.54-0.76,3.96-0.76c1.21,0,2.33,0.18,3.38,0.53c1.04,0.35,1.97,0.85,2.79,1.5c0.81,0.65,1.48,1.41,2.01,2.3
		c0.53,0.89,0.87,1.87,1.03,2.94H295.52z"/>
	<path class="st6" d="M311,595.36v-21.82h8.18c1.68,0,3.08,0.29,4.22,0.87c1.14,0.58,2,1.4,2.59,2.44c0.59,1.05,0.88,2.27,0.88,3.66
		c0,1.4-0.3,2.61-0.89,3.64c-0.59,1.03-1.46,1.82-2.62,2.38c-1.15,0.56-2.56,0.84-4.24,0.84h-5.83v-3.28h5.29
		c0.98,0,1.78-0.14,2.41-0.41c0.62-0.27,1.09-0.67,1.39-1.2c0.3-0.53,0.45-1.18,0.45-1.95c0-0.77-0.15-1.44-0.46-1.99
		c-0.31-0.55-0.77-0.97-1.4-1.26c-0.62-0.29-1.43-0.43-2.42-0.43h-3.62v18.52H311z M322.28,585.47l5.4,9.89h-4.41l-5.31-9.89H322.28
		z"/>
	<path class="st6" d="M340.77,595.36h-4.22l7.68-21.82h4.88l7.69,21.82h-4.22l-5.83-17.34h-0.17L340.77,595.36z M340.91,586.8h11.51
		v3.17h-11.51V586.8z"/>
	<path class="st6" d="M367.12,595.36v-21.82h13.98v3.31h-10.02v5.92h9.07v3.31h-9.07v9.27H367.12z"/>
	<path class="st6" d="M396.09,573.54v21.82h-3.95v-21.82H396.09z"/>
	<path class="st6" d="M410.63,595.36h-4.22l7.68-21.82h4.88l7.69,21.82h-4.22l-5.83-17.34h-0.17L410.63,595.36z M410.77,586.8h11.51
		v3.17h-11.51V586.8z"/>
</g>
<g>
	<line class="st7" x1="178.5" y1="623" x2="857.5" y2="623"/>
	<line class="st7" x1="1062.5" y1="623.5" x2="1741.5" y2="623.5"/>
</g>
<g>
	<path class="st6" d="M1082.59,580.8h-3.98c-0.11-0.65-0.32-1.23-0.63-1.74c-0.31-0.51-0.69-0.94-1.14-1.29
		c-0.46-0.35-0.97-0.62-1.55-0.8c-0.58-0.18-1.2-0.27-1.87-0.27c-1.19,0-2.24,0.3-3.15,0.89c-0.92,0.59-1.63,1.46-2.15,2.6
		s-0.78,2.53-0.78,4.17c0,1.67,0.26,3.07,0.78,4.21c0.52,1.14,1.24,2,2.15,2.58c0.91,0.58,1.96,0.87,3.14,0.87
		c0.65,0,1.27-0.09,1.84-0.26c0.57-0.17,1.09-0.43,1.54-0.77c0.46-0.34,0.84-0.76,1.16-1.26c0.32-0.5,0.53-1.07,0.66-1.7l3.98,0.02
		c-0.15,1.04-0.47,2.01-0.96,2.92c-0.49,0.91-1.14,1.71-1.93,2.4c-0.79,0.69-1.73,1.23-2.79,1.62s-2.25,0.58-3.55,0.58
		c-1.92,0-3.63-0.44-5.13-1.33s-2.69-2.17-3.56-3.85c-0.87-1.68-1.3-3.69-1.3-6.03c0-2.35,0.44-4.36,1.31-6.04
		c0.87-1.67,2.06-2.95,3.57-3.84c1.51-0.89,3.21-1.33,5.11-1.33c1.21,0,2.34,0.17,3.39,0.51c1.04,0.34,1.97,0.84,2.79,1.5
		c0.82,0.66,1.49,1.46,2.02,2.41C1082.08,578.5,1082.42,579.59,1082.59,580.8z"/>
	<path class="st6" d="M1105.72,584.35c0,2.35-0.44,4.36-1.32,6.04c-0.88,1.67-2.07,2.95-3.58,3.84c-1.51,0.89-3.22,1.33-5.13,1.33
		c-1.91,0-3.62-0.45-5.13-1.34c-1.51-0.89-2.7-2.17-3.58-3.85c-0.88-1.67-1.32-3.68-1.32-6.02c0-2.35,0.44-4.36,1.32-6.04
		c0.88-1.67,2.07-2.95,3.58-3.84c1.51-0.89,3.22-1.33,5.13-1.33c1.91,0,3.62,0.44,5.13,1.33c1.51,0.89,2.7,2.17,3.58,3.84
		C1105.28,579.99,1105.72,582,1105.72,584.35z M1101.74,584.35c0-1.65-0.26-3.05-0.77-4.19c-0.51-1.14-1.23-2-2.14-2.59
		s-1.96-0.88-3.14-0.88c-1.19,0-2.23,0.29-3.14,0.88s-1.62,1.45-2.14,2.59c-0.51,1.14-0.77,2.54-0.77,4.19
		c0,1.66,0.26,3.05,0.77,4.19s1.23,2,2.14,2.59s1.96,0.88,3.14,0.88c1.19,0,2.23-0.29,3.14-0.88s1.62-1.45,2.14-2.59
		S1101.74,586,1101.74,584.35z"/>
	<path class="st6" d="M1109.47,595.26v-21.82h8.18c1.68,0,3.08,0.29,4.22,0.87c1.14,0.58,2,1.4,2.59,2.44
		c0.59,1.05,0.88,2.27,0.88,3.66c0,1.4-0.3,2.61-0.89,3.64c-0.59,1.03-1.46,1.82-2.62,2.38c-1.15,0.56-2.56,0.84-4.24,0.84h-5.83
		v-3.28h5.29c0.98,0,1.78-0.14,2.41-0.41c0.62-0.27,1.09-0.67,1.39-1.2c0.3-0.53,0.45-1.18,0.45-1.95c0-0.77-0.15-1.44-0.46-1.99
		c-0.31-0.55-0.77-0.97-1.4-1.26c-0.62-0.29-1.43-0.43-2.42-0.43h-3.62v18.52H1109.47z M1120.74,585.37l5.4,9.89h-4.41l-5.3-9.89
		H1120.74z"/>
	<path class="st6" d="M1128.98,595.26v-21.82h14.19v3.31h-10.24v5.92h9.5v3.31h-9.5v5.96h10.32v3.31H1128.98z"/>
	<path class="st6" d="M1159.07,579.44c-0.1-0.93-0.52-1.65-1.25-2.17c-0.73-0.52-1.69-0.78-2.86-0.78c-0.82,0-1.53,0.12-2.12,0.37
		c-0.59,0.25-1.04,0.59-1.35,1.01c-0.31,0.43-0.47,0.91-0.48,1.46c0,0.45,0.1,0.85,0.31,1.18c0.21,0.33,0.5,0.62,0.86,0.85
		c0.36,0.23,0.76,0.42,1.2,0.58s0.88,0.29,1.33,0.39l2.05,0.51c0.82,0.19,1.62,0.45,2.38,0.78c0.76,0.33,1.45,0.74,2.06,1.24
		c0.61,0.5,1.09,1.1,1.44,1.8c0.35,0.7,0.53,1.53,0.53,2.47c0,1.28-0.33,2.4-0.98,3.37c-0.65,0.97-1.6,1.73-2.83,2.27
		c-1.23,0.54-2.72,0.81-4.47,0.81c-1.7,0-3.17-0.26-4.42-0.79s-2.22-1.29-2.92-2.3c-0.7-1.01-1.08-2.24-1.13-3.69h3.89
		c0.06,0.76,0.29,1.39,0.7,1.9s0.95,0.88,1.61,1.13c0.66,0.25,1.41,0.37,2.23,0.37c0.86,0,1.61-0.13,2.26-0.39
		c0.65-0.26,1.16-0.62,1.53-1.09c0.37-0.46,0.56-1.01,0.56-1.63c-0.01-0.57-0.17-1.04-0.5-1.41c-0.33-0.37-0.78-0.69-1.37-0.94
		s-1.27-0.48-2.05-0.68l-2.48-0.64c-1.8-0.46-3.22-1.16-4.26-2.1c-1.04-0.94-1.56-2.19-1.56-3.75c0-1.29,0.35-2.41,1.05-3.38
		c0.7-0.97,1.65-1.72,2.86-2.25c1.21-0.54,2.57-0.8,4.1-0.8c1.55,0,2.91,0.27,4.08,0.8c1.17,0.54,2.09,1.28,2.75,2.23
		c0.67,0.95,1.01,2.04,1.03,3.27H1159.07z"/>
</g>
<g>
	<path class="st6" d="M181.07,132.66v-21.82h3.95v18.5h9.61v3.31H181.07z"/>
	<path class="st6" d="M224.99,121.75c0,2.35-0.44,4.36-1.32,6.04c-0.88,1.67-2.07,2.95-3.58,3.84s-3.22,1.33-5.13,1.33
		c-1.91,0-3.62-0.45-5.13-1.34c-1.51-0.89-2.7-2.17-3.58-3.85c-0.88-1.67-1.32-3.68-1.32-6.02c0-2.35,0.44-4.36,1.32-6.04
		c0.88-1.67,2.07-2.95,3.58-3.84c1.51-0.89,3.22-1.33,5.13-1.33c1.91,0,3.62,0.44,5.13,1.33c1.51,0.89,2.7,2.17,3.58,3.84
		C224.55,117.38,224.99,119.4,224.99,121.75z M221.02,121.75c0-1.65-0.26-3.05-0.77-4.19c-0.52-1.14-1.23-2-2.14-2.59
		s-1.96-0.88-3.14-0.88c-1.19,0-2.23,0.29-3.14,0.88s-1.62,1.45-2.14,2.59c-0.52,1.14-0.77,2.54-0.77,4.19
		c0,1.66,0.26,3.05,0.77,4.19c0.51,1.14,1.23,2,2.14,2.59s1.96,0.88,3.14,0.88c1.19,0,2.23-0.29,3.14-0.88s1.62-1.45,2.14-2.59
		C220.76,124.8,221.02,123.4,221.02,121.75z"/>
	<path class="st6" d="M250.8,117.8c-0.18-0.58-0.42-1.09-0.73-1.55c-0.31-0.46-0.68-0.85-1.11-1.18c-0.43-0.33-0.92-0.57-1.48-0.74
		c-0.55-0.17-1.16-0.25-1.81-0.25c-1.17,0-2.22,0.29-3.13,0.88c-0.92,0.59-1.64,1.45-2.16,2.59c-0.52,1.14-0.78,2.53-0.78,4.16
		c0,1.65,0.26,3.04,0.78,4.19c0.52,1.14,1.24,2.01,2.16,2.6c0.92,0.59,2,0.89,3.22,0.89c1.11,0,2.07-0.21,2.88-0.64
		c0.81-0.43,1.44-1.03,1.88-1.82c0.44-0.78,0.66-1.71,0.66-2.76l0.9,0.14h-5.92v-3.09h8.85v2.62c0,1.87-0.4,3.48-1.19,4.85
		c-0.8,1.36-1.89,2.41-3.28,3.15c-1.39,0.74-2.99,1.1-4.79,1.1c-2.01,0-3.77-0.45-5.29-1.36c-1.52-0.91-2.7-2.2-3.55-3.87
		c-0.85-1.67-1.27-3.66-1.27-5.96c0-1.76,0.25-3.33,0.75-4.72c0.5-1.38,1.2-2.56,2.1-3.53s1.96-1.71,3.17-2.22s2.54-0.76,3.96-0.76
		c1.21,0,2.33,0.18,3.38,0.53c1.04,0.35,1.97,0.85,2.79,1.5c0.81,0.65,1.48,1.41,2.01,2.3c0.53,0.89,0.87,1.87,1.03,2.94H250.8z"/>
	<path class="st6" d="M285.78,121.75c0,2.35-0.44,4.36-1.32,6.04c-0.88,1.67-2.07,2.95-3.58,3.84s-3.22,1.33-5.13,1.33
		c-1.91,0-3.62-0.45-5.13-1.34c-1.51-0.89-2.7-2.17-3.58-3.85c-0.88-1.67-1.32-3.68-1.32-6.02c0-2.35,0.44-4.36,1.32-6.04
		c0.88-1.67,2.07-2.95,3.58-3.84c1.51-0.89,3.22-1.33,5.13-1.33c1.91,0,3.62,0.44,5.13,1.33c1.51,0.89,2.7,2.17,3.58,3.84
		C285.34,117.38,285.78,119.4,285.78,121.75z M281.8,121.75c0-1.65-0.26-3.05-0.77-4.19c-0.52-1.14-1.23-2-2.14-2.59
		s-1.96-0.88-3.14-0.88c-1.19,0-2.23,0.29-3.14,0.88s-1.62,1.45-2.14,2.59c-0.52,1.14-0.77,2.54-0.77,4.19
		c0,1.66,0.26,3.05,0.77,4.19c0.51,1.14,1.23,2,2.14,2.59s1.96,0.88,3.14,0.88c1.19,0,2.23-0.29,3.14-0.88s1.62-1.45,2.14-2.59
		C281.55,124.8,281.8,123.4,281.8,121.75z"/>
	<path class="st6" d="M296.02,114.15v-3.31h17.41v3.31h-6.74v18.5h-3.92v-18.5H296.02z"/>
	<path class="st6" d="M328.17,110.84v21.82h-3.95v-21.82H328.17z"/>
	<path class="st6" d="M339.91,132.66v-21.82h8.18c1.68,0,3.08,0.31,4.22,0.94c1.14,0.62,2,1.48,2.59,2.57
		c0.59,1.09,0.88,2.33,0.88,3.71c0,1.4-0.29,2.64-0.88,3.73c-0.59,1.09-1.46,1.94-2.61,2.56c-1.15,0.62-2.57,0.93-4.25,0.93h-5.42
		v-3.25h4.89c0.98,0,1.78-0.17,2.41-0.51c0.62-0.34,1.09-0.81,1.39-1.41c0.3-0.6,0.45-1.28,0.45-2.06c0-0.77-0.15-1.46-0.45-2.05
		c-0.3-0.59-0.77-1.05-1.4-1.38c-0.63-0.33-1.44-0.5-2.42-0.5h-3.62v18.52H339.91z"/>
	<path class="st6" d="M386.15,121.75c0,2.35-0.44,4.36-1.32,6.04c-0.88,1.67-2.07,2.95-3.58,3.84s-3.22,1.33-5.13,1.33
		c-1.91,0-3.62-0.45-5.13-1.34c-1.51-0.89-2.7-2.17-3.58-3.85c-0.88-1.67-1.32-3.68-1.32-6.02c0-2.35,0.44-4.36,1.32-6.04
		c0.88-1.67,2.07-2.95,3.58-3.84c1.51-0.89,3.22-1.33,5.13-1.33c1.91,0,3.62,0.44,5.13,1.33c1.51,0.89,2.7,2.17,3.58,3.84
		C385.71,117.38,386.15,119.4,386.15,121.75z M382.18,121.75c0-1.65-0.26-3.05-0.77-4.19c-0.52-1.14-1.23-2-2.14-2.59
		s-1.96-0.88-3.14-0.88c-1.19,0-2.23,0.29-3.14,0.88s-1.62,1.45-2.14,2.59c-0.52,1.14-0.77,2.54-0.77,4.19
		c0,1.66,0.26,3.05,0.77,4.19c0.51,1.14,1.23,2,2.14,2.59s1.96,0.88,3.14,0.88c1.19,0,2.23-0.29,3.14-0.88s1.62-1.45,2.14-2.59
		C381.92,124.8,382.18,123.4,382.18,121.75z"/>
</g>
<g>
	<line class="st7" x1="179.03" y1="160.3" x2="1741" y2="160.3"/>
</g>
<g>
	<path class="st4" d="M306.68,252.86L190.92,310.5c-7.99,2.68-12.84,10.74-11.51,19.06c6.22,38.75,32.08,141.33,131.67,141.33
		s125.46-102.59,131.67-141.33c1.33-8.32-3.52-16.38-11.51-19.06L315.5,252.86C312.72,251.48,309.45,251.48,306.68,252.86z"/>
	<g>
		<circle class="st5" cx="298.3" cy="378.27" r="45.8"/>
		<circle class="st5" cx="319.6" cy="322.89" r="24.47"/>
		<circle class="st5" cx="352.97" cy="378.27" r="15.76"/>
		<circle class="st5" cx="361.17" cy="341.25" r="8.57"/>
	</g>
</g>
<g>
	<path class="st4" d="M581.18,320.19h-21.77c-0.4-2.82-1.21-5.33-2.44-7.53c-1.23-2.2-2.8-4.08-4.72-5.64
		c-1.92-1.56-4.13-2.75-6.63-3.58c-2.5-0.83-5.21-1.24-8.13-1.24c-5.27,0-9.86,1.3-13.77,3.9c-3.91,2.6-6.94,6.38-9.09,11.33
		c-2.15,4.95-3.23,10.96-3.23,18.02c0,7.26,1.08,13.35,3.26,18.29c2.17,4.94,5.21,8.67,9.12,11.18c3.91,2.52,8.43,3.78,13.57,3.78
		c2.88,0,5.56-0.38,8.03-1.14c2.47-0.76,4.66-1.88,6.58-3.35c1.92-1.47,3.52-3.27,4.8-5.39c1.27-2.12,2.16-4.54,2.66-7.26l21.77,0.1
		c-0.56,4.67-1.96,9.17-4.2,13.49c-2.24,4.32-5.24,8.18-9,11.58c-3.76,3.4-8.23,6.08-13.42,8.05c-5.19,1.97-11.04,2.96-17.57,2.96
		c-9.08,0-17.19-2.05-24.33-6.16c-7.14-4.11-12.77-10.06-16.9-17.84c-4.12-7.79-6.19-17.21-6.19-28.28c0-11.1,2.09-20.54,6.26-28.33
		c4.17-7.79,9.84-13.72,17-17.82c7.16-4.09,15.21-6.14,24.15-6.14c5.9,0,11.37,0.83,16.43,2.48c5.05,1.66,9.53,4.07,13.44,7.23
		c3.91,3.16,7.1,7.03,9.57,11.6C578.9,309.06,580.48,314.3,581.18,320.19z"/>
	<path class="st4" d="M628.26,387.83c-7.72,0-14.39-1.65-20-4.95c-5.62-3.3-9.95-7.9-13-13.82c-3.05-5.91-4.57-12.78-4.57-20.6
		c0-7.88,1.52-14.79,4.57-20.7c3.05-5.91,7.38-10.52,13-13.82c5.62-3.3,12.28-4.95,20-4.95c7.72,0,14.39,1.65,20,4.95
		c5.62,3.3,9.95,7.9,13,13.82c3.05,5.91,4.57,12.81,4.57,20.7c0,7.82-1.52,14.69-4.57,20.6c-3.05,5.91-7.38,10.52-13,13.82
		C642.65,386.18,635.98,387.83,628.26,387.83z M628.36,371.43c3.51,0,6.44-1,8.8-3.01c2.35-2,4.13-4.75,5.34-8.22
		s1.81-7.44,1.81-11.88c0-4.44-0.6-8.4-1.81-11.88c-1.21-3.48-2.99-6.23-5.34-8.25c-2.35-2.02-5.28-3.03-8.8-3.03
		c-3.55,0-6.52,1.01-8.92,3.03c-2.4,2.02-4.21,4.77-5.42,8.25c-1.21,3.48-1.81,7.44-1.81,11.88c0,4.44,0.6,8.4,1.81,11.88
		c1.21,3.48,3.01,6.22,5.42,8.22C621.84,370.43,624.81,371.43,628.36,371.43z"/>
	<path class="st4" d="M744.94,310.01l-26.69,76.33h-23.85l-26.69-76.33h22.36l15.85,54.62h0.79l15.8-54.62H744.94z"/>
	<path class="st4" d="M763.86,300.17c-3.15,0-5.85-1.05-8.1-3.16c-2.25-2.1-3.38-4.63-3.38-7.58c0-2.92,1.13-5.42,3.38-7.53
		c2.25-2.1,4.94-3.16,8.05-3.16c3.18,0,5.89,1.05,8.13,3.16c2.24,2.1,3.35,4.61,3.35,7.53c0,2.95-1.12,5.47-3.35,7.58
		C769.7,299.11,767.01,300.17,763.86,300.17z M753.18,386.34v-76.33h21.17v76.33H753.18z"/>
	<path class="st4" d="M817.49,387.58c-5.8,0-11.04-1.5-15.73-4.5c-4.69-3-8.4-7.42-11.13-13.27c-2.73-5.85-4.1-13.03-4.1-21.54
		c0-8.75,1.41-16.03,4.22-21.84c2.82-5.81,6.57-10.17,11.26-13.07c4.69-2.9,9.83-4.35,15.43-4.35c4.27,0,7.84,0.72,10.71,2.16
		c2.87,1.44,5.18,3.23,6.96,5.37c1.77,2.14,3.12,4.23,4.05,6.29h0.65v-38.27h21.12v101.78h-20.87v-12.23h-0.89
		c-0.99,2.12-2.39,4.22-4.2,6.29c-1.81,2.07-4.14,3.79-7.01,5.14C825.08,386.9,821.59,387.58,817.49,387.58z M824.19,370.74
		c3.41,0,6.3-0.94,8.67-2.81c2.37-1.87,4.19-4.5,5.47-7.88c1.28-3.38,1.91-7.34,1.91-11.88s-0.63-8.48-1.89-11.83
		c-1.26-3.35-3.08-5.93-5.47-7.75c-2.39-1.82-5.28-2.73-8.7-2.73c-3.48,0-6.41,0.94-8.8,2.83s-4.19,4.51-5.42,7.85
		c-1.23,3.35-1.84,7.22-1.84,11.63c0,4.44,0.62,8.36,1.86,11.75c1.24,3.4,3.05,6.05,5.42,7.95
		C817.79,369.78,820.72,370.74,824.19,370.74z"/>
	<path class="st4" d="M895.66,386.34H872.6l35.14-101.78h27.73l35.09,101.78h-23.06L922,307.82h-0.79L895.66,386.34z M894.22,346.33
		h54.47v16.8h-54.47V346.33z"/>
	<path class="st4" d="M982.03,414.97V310.01h20.87v12.82h0.94c0.93-2.05,2.28-4.15,4.05-6.29c1.77-2.14,4.09-3.93,6.96-5.37
		c2.87-1.44,6.44-2.16,10.71-2.16c5.57,0,10.7,1.45,15.41,4.35c4.7,2.9,8.46,7.26,11.28,13.07c2.82,5.81,4.22,13.1,4.22,21.84
		c0,8.52-1.37,15.7-4.1,21.54c-2.73,5.85-6.44,10.27-11.13,13.27c-4.69,3-9.93,4.5-15.73,4.5c-4.11,0-7.6-0.68-10.46-2.04
		c-2.87-1.36-5.21-3.07-7.03-5.14c-1.82-2.07-3.21-4.17-4.17-6.29h-0.65v40.85H982.03z M1002.75,348.17c0,4.54,0.63,8.5,1.89,11.88
		c1.26,3.38,3.08,6.01,5.47,7.88c2.39,1.87,5.28,2.81,8.7,2.81c3.45,0,6.36-0.95,8.75-2.86c2.39-1.9,4.2-4.55,5.44-7.95
		c1.24-3.4,1.86-7.31,1.86-11.75c0-4.41-0.61-8.28-1.84-11.63c-1.23-3.35-3.03-5.96-5.42-7.85c-2.38-1.89-5.32-2.83-8.8-2.83
		c-3.45,0-6.35,0.91-8.72,2.73c-2.37,1.82-4.18,4.41-5.44,7.75C1003.38,339.69,1002.75,343.63,1002.75,348.17z"/>
	<path class="st4" d="M1068.91,414.97V310.01h20.87v12.82h0.94c0.93-2.05,2.28-4.15,4.05-6.29c1.77-2.14,4.09-3.93,6.96-5.37
		c2.87-1.44,6.44-2.16,10.71-2.16c5.57,0,10.7,1.45,15.41,4.35c4.7,2.9,8.46,7.26,11.28,13.07c2.82,5.81,4.22,13.1,4.22,21.84
		c0,8.52-1.37,15.7-4.1,21.54c-2.73,5.85-6.44,10.27-11.13,13.27c-4.69,3-9.93,4.5-15.73,4.5c-4.11,0-7.6-0.68-10.46-2.04
		c-2.87-1.36-5.21-3.07-7.03-5.14c-1.82-2.07-3.21-4.17-4.17-6.29h-0.65v40.85H1068.91z M1089.63,348.17c0,4.54,0.63,8.5,1.89,11.88
		c1.26,3.38,3.08,6.01,5.47,7.88c2.39,1.87,5.28,2.81,8.7,2.81c3.45,0,6.36-0.95,8.75-2.86c2.39-1.9,4.2-4.55,5.44-7.95
		c1.24-3.4,1.86-7.31,1.86-11.75c0-4.41-0.61-8.28-1.84-11.63c-1.23-3.35-3.03-5.96-5.42-7.85c-2.38-1.89-5.32-2.83-8.8-2.83
		c-3.45,0-6.35,0.91-8.72,2.73c-2.37,1.82-4.18,4.41-5.44,7.75C1090.26,339.69,1089.63,343.63,1089.63,348.17z"/>
</g>
<g>
	<path class="st4" d="M1516,238.96l-62.02,30.88c-4.28,1.44-6.88,5.76-6.17,10.21c3.33,20.76,17.19,75.72,70.55,75.72
		s67.22-54.96,70.55-75.72c0.71-4.46-1.89-8.78-6.17-10.21l-62.02-30.88C1519.24,238.22,1517.49,238.22,1516,238.96z"/>
	<g>
		<circle class="st5" cx="1511.51" cy="306.16" r="24.54"/>
		<circle class="st5" cx="1522.93" cy="276.48" r="13.11"/>
		<circle class="st5" cx="1540.8" cy="306.16" r="8.44"/>
		<circle class="st5" cx="1545.19" cy="286.32" r="4.59"/>
	</g>
</g>
<g>
	<path class="st4" d="M1358.49,402.73h-14.92c-0.27-1.93-0.83-3.65-1.67-5.16c-0.84-1.51-1.92-2.8-3.24-3.87
		c-1.32-1.07-2.83-1.88-4.55-2.45c-1.71-0.57-3.57-0.85-5.57-0.85c-3.61,0-6.75,0.89-9.43,2.67c-2.68,1.78-4.76,4.37-6.23,7.76
		c-1.48,3.39-2.21,7.51-2.21,12.35c0,4.97,0.74,9.15,2.23,12.53c1.49,3.38,3.57,5.94,6.25,7.66c2.68,1.73,5.78,2.59,9.3,2.59
		c1.98,0,3.81-0.26,5.5-0.78c1.69-0.52,3.2-1.29,4.51-2.3c1.32-1.01,2.41-2.24,3.29-3.7c0.87-1.45,1.48-3.11,1.82-4.97l14.92,0.07
		c-0.39,3.2-1.35,6.28-2.88,9.25c-1.53,2.96-3.59,5.61-6.16,7.94c-2.58,2.33-5.64,4.17-9.19,5.52c-3.55,1.35-7.57,2.03-12.04,2.03
		c-6.22,0-11.78-1.41-16.67-4.22c-4.89-2.82-8.75-6.89-11.58-12.23c-2.83-5.33-4.24-11.79-4.24-19.38c0-7.61,1.43-14.08,4.29-19.41
		c2.86-5.34,6.74-9.41,11.65-12.21c4.9-2.8,10.42-4.21,16.55-4.21c4.04,0,7.79,0.57,11.26,1.7c3.46,1.14,6.53,2.79,9.21,4.96
		c2.68,2.17,4.86,4.82,6.56,7.95C1356.93,395.1,1358.02,398.69,1358.49,402.73z"/>
	<path class="st4" d="M1390.76,449.08c-5.29,0-9.86-1.13-13.71-3.39c-3.85-2.26-6.82-5.41-8.91-9.47
		c-2.09-4.05-3.13-8.76-3.13-14.12c0-5.4,1.04-10.13,3.13-14.18c2.09-4.05,5.06-7.21,8.91-9.47c3.85-2.26,8.42-3.39,13.71-3.39
		c5.29,0,9.86,1.13,13.71,3.39c3.85,2.26,6.82,5.41,8.91,9.47c2.09,4.05,3.13,8.78,3.13,14.18c0,5.36-1.04,10.06-3.13,14.12
		c-2.09,4.05-5.06,7.21-8.91,9.47C1400.62,447.95,1396.05,449.08,1390.76,449.08z M1390.83,437.84c2.41,0,4.42-0.69,6.03-2.06
		c1.61-1.37,2.83-3.25,3.66-5.64s1.24-5.1,1.24-8.14c0-3.04-0.41-5.76-1.24-8.14c-0.83-2.38-2.05-4.27-3.66-5.65
		c-1.61-1.38-3.62-2.08-6.03-2.08c-2.43,0-4.47,0.69-6.11,2.08c-1.65,1.39-2.88,3.27-3.71,5.65c-0.83,2.38-1.24,5.1-1.24,8.14
		c0,3.04,0.41,5.76,1.24,8.14c0.83,2.38,2.07,4.26,3.71,5.64C1386.36,437.16,1388.4,437.84,1390.83,437.84z"/>
	<path class="st4" d="M1470.71,395.75l-18.29,52.31h-16.35l-18.29-52.31h15.33l10.86,37.43h0.54l10.83-37.43H1470.71z"/>
	<path class="st4" d="M1483.68,389.01c-2.16,0-4.01-0.72-5.55-2.16c-1.54-1.44-2.32-3.17-2.32-5.19c0-2,0.77-3.72,2.32-5.16
		c1.54-1.44,3.38-2.16,5.52-2.16c2.18,0,4.04,0.72,5.57,2.16c1.53,1.44,2.3,3.16,2.3,5.16c0,2.02-0.77,3.75-2.3,5.19
		C1487.69,388.29,1485.84,389.01,1483.68,389.01z M1476.36,448.06v-52.31h14.51v52.31H1476.36z"/>
	<path class="st4" d="M1520.43,448.91c-3.97,0-7.57-1.03-10.78-3.08c-3.21-2.05-5.76-5.09-7.63-9.09
		c-1.87-4.01-2.81-8.93-2.81-14.76c0-5.99,0.96-10.98,2.89-14.97c1.93-3.98,4.5-6.97,7.71-8.96c3.21-1.99,6.74-2.98,10.57-2.98
		c2.93,0,5.38,0.49,7.34,1.48c1.96,0.99,3.55,2.21,4.77,3.68c1.21,1.46,2.14,2.9,2.78,4.31h0.44v-26.22h14.47v69.75h-14.3v-8.38
		h-0.61c-0.68,1.45-1.64,2.89-2.88,4.31c-1.24,1.42-2.84,2.59-4.8,3.52C1525.63,448.45,1523.24,448.91,1520.43,448.91z
		 M1525.03,437.37c2.34,0,4.32-0.64,5.94-1.92c1.62-1.28,2.87-3.08,3.75-5.4c0.87-2.32,1.31-5.03,1.31-8.14s-0.43-5.81-1.29-8.11
		c-0.86-2.29-2.11-4.06-3.75-5.31c-1.63-1.25-3.62-1.87-5.96-1.87c-2.38,0-4.39,0.65-6.03,1.94c-1.63,1.29-2.87,3.09-3.71,5.38
		c-0.84,2.29-1.26,4.95-1.26,7.97c0,3.04,0.43,5.73,1.28,8.05c0.85,2.33,2.09,4.14,3.71,5.45
		C1520.64,436.72,1522.64,437.37,1525.03,437.37z"/>
	<path class="st4" d="M1572.63,448.06h-15.8l24.08-69.75h19l24.04,69.75h-15.8l-17.47-53.81h-0.54L1572.63,448.06z M1571.64,420.65
		h37.33v11.51h-37.33V420.65z"/>
	<path class="st4" d="M1630.44,467.68v-71.93h14.3v8.79h0.65c0.64-1.41,1.56-2.84,2.78-4.31c1.21-1.46,2.8-2.69,4.77-3.68
		c1.96-0.99,4.41-1.48,7.34-1.48c3.81,0,7.33,0.99,10.56,2.98c3.22,1.99,5.8,4.97,7.73,8.96c1.93,3.98,2.89,8.97,2.89,14.97
		c0,5.84-0.94,10.76-2.81,14.76c-1.87,4.01-4.42,7.04-7.63,9.09c-3.21,2.06-6.81,3.08-10.78,3.08c-2.82,0-5.21-0.47-7.17-1.4
		c-1.96-0.93-3.57-2.11-4.82-3.52c-1.25-1.42-2.2-2.85-2.86-4.31h-0.44v27.99H1630.44z M1644.65,421.91c0,3.11,0.43,5.82,1.29,8.14
		c0.86,2.32,2.11,4.12,3.75,5.4c1.63,1.28,3.62,1.92,5.96,1.92c2.36,0,4.36-0.65,5.99-1.96c1.63-1.3,2.88-3.12,3.73-5.45
		c0.85-2.33,1.28-5.01,1.28-8.05c0-3.02-0.42-5.68-1.26-7.97c-0.84-2.29-2.08-4.09-3.71-5.38c-1.63-1.29-3.64-1.94-6.03-1.94
		c-2.36,0-4.35,0.63-5.98,1.87c-1.62,1.25-2.87,3.02-3.73,5.31C1645.08,416.09,1644.65,418.8,1644.65,421.91z"/>
	<path class="st4" d="M1689.98,467.68v-71.93h14.3v8.79h0.65c0.64-1.41,1.56-2.84,2.78-4.31c1.21-1.46,2.8-2.69,4.77-3.68
		c1.96-0.99,4.41-1.48,7.34-1.48c3.81,0,7.33,0.99,10.56,2.98c3.22,1.99,5.8,4.97,7.73,8.96c1.93,3.98,2.89,8.97,2.89,14.97
		c0,5.84-0.94,10.76-2.81,14.76c-1.87,4.01-4.42,7.04-7.63,9.09c-3.21,2.06-6.81,3.08-10.78,3.08c-2.82,0-5.21-0.47-7.17-1.4
		c-1.96-0.93-3.57-2.11-4.82-3.52c-1.25-1.42-2.2-2.85-2.86-4.31h-0.44v27.99H1689.98z M1704.19,421.91c0,3.11,0.43,5.82,1.29,8.14
		c0.86,2.32,2.11,4.12,3.75,5.4c1.63,1.28,3.62,1.92,5.96,1.92c2.36,0,4.36-0.65,5.99-1.96c1.63-1.3,2.88-3.12,3.73-5.45
		c0.85-2.33,1.28-5.01,1.28-8.05c0-3.02-0.42-5.68-1.26-7.97c-0.84-2.29-2.08-4.09-3.71-5.38c-1.63-1.29-3.64-1.94-6.03-1.94
		c-2.36,0-4.35,0.63-5.98,1.87c-1.62,1.25-2.87,3.02-3.73,5.31C1704.62,416.09,1704.19,418.8,1704.19,421.91z"/>
</g>
<g>
	<path class="st4" d="M514.58,415.93c0,2.62-0.47,4.9-1.4,6.84c-0.93,1.94-2.22,3.43-3.85,4.5c-1.63,1.06-3.51,1.59-5.63,1.59
		c-2.12,0-4-0.53-5.63-1.59c-1.63-1.06-2.92-2.56-3.85-4.5c-0.93-1.94-1.39-4.22-1.39-6.84c0-2.62,0.47-4.9,1.39-6.84
		s2.21-3.44,3.85-4.49c1.64-1.06,3.51-1.59,5.63-1.59c2.12,0,4,0.53,5.63,1.59c1.63,1.06,2.92,2.56,3.85,4.49
		S514.58,413.31,514.58,415.93z M512.34,415.93c0-2.25-0.38-4.19-1.13-5.79c-0.75-1.61-1.78-2.84-3.08-3.69
		c-1.3-0.85-2.78-1.28-4.43-1.28c-1.65,0-3.12,0.42-4.42,1.28c-1.3,0.85-2.33,2.08-3.09,3.69c-0.76,1.61-1.14,3.54-1.14,5.8
		c0,2.25,0.38,4.18,1.13,5.78c0.75,1.61,1.78,2.84,3.08,3.69c1.3,0.86,2.78,1.28,4.43,1.28c1.65,0,3.13-0.43,4.44-1.28
		c1.31-0.85,2.34-2.08,3.09-3.69C511.97,420.11,512.35,418.18,512.34,415.93z M503.37,420.64h2.56l3.22,4.26l0.54,0.71l3.95,5.24
		h-2.55l-2.9-3.87l-0.51-0.69L503.37,420.64z"/>
	<path class="st4" d="M536.78,403.35h2.3V420c0,1.71-0.4,3.24-1.2,4.59c-0.8,1.35-1.92,2.41-3.35,3.18
		c-1.43,0.78-3.09,1.16-4.98,1.16c-1.88,0-3.54-0.39-4.98-1.17c-1.43-0.78-2.55-1.84-3.35-3.18c-0.8-1.34-1.2-2.87-1.2-4.58v-16.66
		h2.3v16.5c0,1.33,0.3,2.52,0.9,3.57c0.6,1.05,1.44,1.87,2.52,2.46c1.08,0.6,2.36,0.9,3.81,0.9c1.46,0,2.73-0.3,3.82-0.9
		c1.09-0.6,1.93-1.42,2.52-2.46c0.59-1.05,0.89-2.23,0.89-3.57V403.35z"/>
	<path class="st4" d="M544.67,428.51h-2.41l9.15-25.16h2.46l9.15,25.16h-2.41l-7.89-22.17h-0.17L544.67,428.51z M546.4,418.86h12.48
		v2.06H546.4V418.86z"/>
	<path class="st4" d="M567.31,428.51v-25.16h8.12c1.78,0,3.28,0.32,4.48,0.96c1.2,0.65,2.1,1.53,2.71,2.67
		c0.61,1.14,0.92,2.43,0.92,3.9c0,1.46-0.3,2.76-0.92,3.88c-0.61,1.12-1.51,2-2.71,2.63s-2.68,0.95-4.45,0.95h-6.92v-2.1h6.86
		c1.31,0,2.4-0.22,3.27-0.65c0.87-0.43,1.52-1.05,1.95-1.85c0.43-0.8,0.65-1.75,0.65-2.85c0-1.1-0.22-2.06-0.65-2.88
		c-0.43-0.82-1.08-1.46-1.96-1.91c-0.87-0.45-1.97-0.68-3.3-0.68h-5.76v23.1H567.31z M578.4,417.15l6.19,11.35h-2.65l-6.13-11.35
		H578.4z"/>
	<path class="st4" d="M589.17,428.51v-25.16h14.59v2.06h-12.3v9.47h11.52v2.06h-11.52v9.5h12.54v2.06H589.17z"/>
	<path class="st4" d="M628.57,403.35v25.16h-2.24l-14.86-21.07h-0.2v21.07h-2.3v-25.16h2.22l14.91,21.09h0.2v-21.09H628.57z"/>
	<path class="st4" d="M633.26,405.41v-2.06h18.24v2.06h-7.97v23.1h-2.3v-23.1H633.26z"/>
	<path class="st4" d="M656.19,428.51v-25.16h14.59v2.06h-12.3v9.47h11.52v2.06h-11.52v9.5h12.54v2.06H656.19z"/>
	<path class="st4" d="M695.59,403.35v25.16h-2.24l-14.86-21.07h-0.2v21.07h-2.3v-25.16h2.22l14.91,21.09h0.2v-21.09H695.59z"/>
	<path class="st4" d="M702.26,428.51h-2.41l9.15-25.16h2.46l9.15,25.16h-2.41l-7.89-22.17h-0.17L702.26,428.51z M703.99,418.86
		h12.48v2.06h-12.48V418.86z"/>
	<path class="st4" d="M736.95,403.35v25.16h-2.3v-25.16H736.95z"/>
	<path class="st4" d="M763.17,403.35v25.16h-2.24l-14.86-21.07h-0.2v21.07h-2.3v-25.16h2.22l14.91,21.09h0.2v-21.09H763.17z"/>
	<path class="st4" d="M767.86,405.41v-2.06h18.24v2.06h-7.97v23.1h-2.3v-23.1H767.86z"/>
	<path class="st4" d="M790.79,428.51v-25.16h14.59v2.06h-12.3v9.47h11.52v2.06h-11.52v9.5h12.54v2.06H790.79z"/>
	<path class="st4" d="M810.59,428.51v-25.16h2.3v23.09h11.99v2.06H810.59z"/>
	<path class="st4" d="M831.88,403.35v25.16h-2.3v-25.16H831.88z"/>
	<path class="st4" d="M855.97,411.21c-0.23-0.84-0.56-1.62-1.01-2.35c-0.44-0.73-0.99-1.37-1.64-1.93c-0.65-0.55-1.4-0.99-2.25-1.3
		c-0.85-0.31-1.79-0.47-2.83-0.47c-1.64,0-3.1,0.42-4.4,1.28c-1.29,0.85-2.32,2.08-3.06,3.69c-0.75,1.61-1.12,3.54-1.12,5.8
		c0,2.25,0.38,4.18,1.13,5.78c0.75,1.61,1.79,2.84,3.1,3.69c1.31,0.86,2.82,1.28,4.51,1.28c1.55,0,2.92-0.35,4.1-1.03
		c1.19-0.69,2.12-1.67,2.78-2.95c0.67-1.28,0.99-2.8,0.98-4.56l0.74,0.23h-8.06v-2.06h9.56v2.06c0,2.15-0.43,4-1.3,5.57
		c-0.87,1.56-2.06,2.77-3.58,3.62c-1.51,0.85-3.25,1.28-5.22,1.28c-2.19,0-4.11-0.53-5.76-1.59c-1.64-1.06-2.92-2.56-3.84-4.5
		c-0.91-1.94-1.37-4.22-1.37-6.84c0-1.97,0.26-3.76,0.79-5.34c0.53-1.59,1.27-2.95,2.23-4.08c0.96-1.13,2.1-1.99,3.42-2.6
		c1.32-0.6,2.78-0.9,4.37-0.9c1.38,0,2.63,0.22,3.78,0.65c1.14,0.44,2.15,1.03,3.02,1.79c0.87,0.76,1.59,1.63,2.15,2.62
		c0.56,0.99,0.94,2.04,1.14,3.15H855.97z"/>
	<path class="st4" d="M864.14,428.51v-25.16h14.59v2.06h-12.3v9.47h11.52v2.06h-11.52v9.5h12.54v2.06H864.14z"/>
	<path class="st4" d="M903.54,403.35v25.16h-2.24l-14.86-21.07h-0.2v21.07h-2.3v-25.16h2.22l14.91,21.09h0.2v-21.09H903.54z"/>
	<path class="st4" d="M908.23,405.41v-2.06h18.24v2.06h-7.97v23.1h-2.3v-23.1H908.23z"/>
	<path class="st4" d="M931.16,428.51v-25.16h14.59v2.06h-12.3v9.47h11.52v2.06h-11.52v9.5H946v2.06H931.16z"/>
</g>
<g>
	<path class="st4" d="M1313.57,471.81c0,1.79-0.32,3.34-0.96,4.66c-0.64,1.32-1.51,2.34-2.63,3.07c-1.11,0.72-2.4,1.09-3.84,1.09
		c-1.45,0-2.73-0.36-3.84-1.09c-1.11-0.72-1.99-1.75-2.62-3.07c-0.63-1.32-0.95-2.88-0.95-4.66c0-1.79,0.32-3.34,0.95-4.67
		c0.63-1.32,1.51-2.35,2.63-3.07c1.12-0.72,2.4-1.09,3.84-1.09c1.45,0,2.73,0.36,3.84,1.09c1.11,0.72,1.99,1.75,2.63,3.07
		C1313.26,468.46,1313.57,470.02,1313.57,471.81z M1312.05,471.81c0-1.54-0.26-2.86-0.77-3.95c-0.51-1.1-1.21-1.94-2.1-2.52
		c-0.89-0.58-1.9-0.87-3.03-0.87c-1.12,0-2.13,0.29-3.02,0.87c-0.89,0.58-1.59,1.42-2.11,2.52c-0.52,1.1-0.77,2.41-0.77,3.96
		c0,1.54,0.26,2.85,0.77,3.95c0.51,1.1,1.22,1.94,2.1,2.52c0.89,0.58,1.9,0.88,3.03,0.88c1.13,0,2.14-0.29,3.03-0.87
		c0.89-0.58,1.59-1.42,2.11-2.52C1311.8,474.66,1312.05,473.34,1312.05,471.81z M1305.93,475.03h1.74l2.2,2.91l0.37,0.49l2.7,3.58
		h-1.74l-1.98-2.64l-0.35-0.47L1305.93,475.03z"/>
	<path class="st4" d="M1328.73,463.22h1.57v11.37c0,1.17-0.27,2.21-0.82,3.13c-0.55,0.92-1.31,1.64-2.28,2.17
		c-0.98,0.53-2.11,0.79-3.4,0.79c-1.28,0-2.42-0.27-3.4-0.8c-0.98-0.53-1.74-1.26-2.29-2.17c-0.55-0.92-0.82-1.96-0.82-3.13v-11.37
		h1.57v11.26c0,0.91,0.2,1.72,0.61,2.43c0.41,0.71,0.98,1.27,1.72,1.68c0.74,0.41,1.61,0.61,2.6,0.61c1,0,1.86-0.2,2.61-0.61
		c0.74-0.41,1.32-0.97,1.72-1.68c0.4-0.71,0.61-1.52,0.61-2.43V463.22z"/>
	<path class="st4" d="M1334.11,480.39h-1.64l6.25-17.17h1.68l6.25,17.17h-1.64l-5.38-15.13h-0.12L1334.11,480.39z M1335.29,473.81
		h8.52v1.41h-8.52V473.81z"/>
	<path class="st4" d="M1349.56,480.39v-17.17h5.54c1.22,0,2.24,0.22,3.06,0.66c0.82,0.44,1.44,1.05,1.85,1.82
		c0.42,0.77,0.62,1.66,0.62,2.66c0,1-0.21,1.88-0.62,2.65c-0.42,0.77-1.03,1.36-1.85,1.79c-0.82,0.43-1.83,0.65-3.03,0.65h-4.72
		v-1.43h4.68c0.89,0,1.64-0.15,2.23-0.44c0.6-0.3,1.04-0.72,1.33-1.27c0.29-0.55,0.44-1.2,0.44-1.94c0-0.75-0.15-1.4-0.45-1.97
		c-0.29-0.56-0.74-1-1.34-1.3c-0.59-0.31-1.34-0.46-2.25-0.46h-3.93v15.76H1349.56z M1357.13,472.65l4.23,7.75h-1.81l-4.18-7.75
		H1357.13z"/>
	<path class="st4" d="M1364.48,480.39v-17.17h9.96v1.41h-8.39v6.46h7.86v1.41h-7.86v6.48h8.56v1.41H1364.48z"/>
	<path class="st4" d="M1391.37,463.22v17.17h-1.53l-10.14-14.38h-0.13v14.38H1378v-17.17h1.52l10.18,14.39h0.13v-14.39H1391.37z"/>
	<path class="st4" d="M1394.57,464.63v-1.41h12.45v1.41h-5.44v15.76h-1.57v-15.76H1394.57z"/>
	<path class="st4" d="M1410.22,480.39v-17.17h9.96v1.41h-8.39v6.46h7.86v1.41h-7.86v6.48h8.56v1.41H1410.22z"/>
	<path class="st4" d="M1437.11,463.22v17.17h-1.53l-10.14-14.38h-0.13v14.38h-1.57v-17.17h1.52l10.18,14.39h0.13v-14.39H1437.11z"/>
	<path class="st4" d="M1441.66,480.39h-1.64l6.25-17.17h1.68l6.24,17.17h-1.64l-5.38-15.13h-0.12L1441.66,480.39z M1442.84,473.81
		h8.52v1.41h-8.52V473.81z"/>
	<path class="st4" d="M1465.33,463.22v17.17h-1.57v-17.17H1465.33z"/>
	<path class="st4" d="M1483.23,463.22v17.17h-1.53l-10.14-14.38h-0.13v14.38h-1.57v-17.17h1.52l10.18,14.39h0.13v-14.39H1483.23z"/>
	<path class="st4" d="M1486.43,464.63v-1.41h12.45v1.41h-5.44v15.76h-1.57v-15.76H1486.43z"/>
	<path class="st4" d="M1502.08,480.39v-17.17h9.96v1.41h-8.39v6.46h7.86v1.41h-7.86v6.48h8.56v1.41H1502.08z"/>
	<path class="st4" d="M1515.59,480.39v-17.17h1.57v15.76h8.18v1.41H1515.59z"/>
	<path class="st4" d="M1530.12,463.22v17.17h-1.57v-17.17H1530.12z"/>
	<path class="st4" d="M1546.56,468.59c-0.16-0.57-0.39-1.11-0.69-1.61c-0.3-0.5-0.68-0.94-1.12-1.32c-0.44-0.38-0.96-0.67-1.53-0.89
		c-0.58-0.21-1.22-0.32-1.93-0.32c-1.12,0-2.12,0.29-3,0.87c-0.88,0.58-1.58,1.42-2.09,2.52c-0.51,1.1-0.77,2.41-0.77,3.96
		c0,1.54,0.26,2.85,0.77,3.95c0.51,1.1,1.22,1.94,2.12,2.52c0.9,0.58,1.92,0.88,3.08,0.88c1.06,0,1.99-0.24,2.8-0.7
		c0.81-0.47,1.44-1.14,1.9-2.01c0.45-0.87,0.68-1.91,0.67-3.11l0.5,0.16h-5.5v-1.41h6.52v1.41c0,1.47-0.29,2.73-0.89,3.8
		c-0.59,1.07-1.41,1.89-2.44,2.47c-1.03,0.58-2.22,0.87-3.56,0.87c-1.5,0-2.81-0.36-3.93-1.09c-1.12-0.72-2-1.75-2.62-3.07
		c-0.62-1.32-0.93-2.88-0.93-4.66c0-1.35,0.18-2.56,0.54-3.65c0.36-1.08,0.87-2.01,1.52-2.78c0.66-0.77,1.43-1.36,2.33-1.77
		c0.9-0.41,1.89-0.61,2.98-0.61c0.94,0,1.8,0.15,2.58,0.44c0.78,0.3,1.47,0.7,2.06,1.22c0.6,0.52,1.08,1.11,1.47,1.79
		c0.38,0.67,0.64,1.39,0.77,2.15H1546.56z"/>
	<path class="st4" d="M1552.14,480.39v-17.17h9.96v1.41h-8.39v6.46h7.86v1.41h-7.86v6.48h8.56v1.41H1552.14z"/>
	<path class="st4" d="M1579.02,463.22v17.17h-1.53l-10.14-14.38h-0.13v14.38h-1.57v-17.17h1.52l10.18,14.39h0.13v-14.39H1579.02z"/>
	<path class="st4" d="M1582.22,464.63v-1.41h12.45v1.41h-5.44v15.76h-1.57v-15.76H1582.22z"/>
	<path class="st4" d="M1597.87,480.39v-17.17h9.96v1.41h-8.39v6.46h7.86v1.41h-7.86v6.48h8.56v1.41H1597.87z"/>
</g>
</svg>
