<?xml version="1.0" encoding="utf-8"?>
<!-- Generator: Adobe Illustrator 24.0.0, SVG Export Plug-In . SVG Version: 6.00 Build 0)  -->
<svg version="1.1" id="Layer_1" xmlns="http://www.w3.org/2000/svg" xmlns:xlink="http://www.w3.org/1999/xlink" x="0px" y="0px"
	 viewBox="0 0 1100.36 316.57" style="enable-background:new 0 0 1100.36 316.57;" xml:space="preserve">
<style type="text/css">
	.st0{fill:#151E3C;}
	.st1{fill:#72F57A;}
</style>
<g>
	<path class="st0" d="M196.55,50.67L80.8,108.31c-7.99,2.68-12.84,10.74-11.51,19.06c6.22,38.75,32.08,141.33,131.67,141.33
		s125.46-102.59,131.67-141.33c1.33-8.32-3.52-16.38-11.51-19.06L205.37,50.67C202.6,49.29,199.33,49.29,196.55,50.67z"/>
	<g>
		<circle class="st1" cx="188.18" cy="176.08" r="45.8"/>
		<circle class="st1" cx="209.48" cy="120.7" r="24.47"/>
		<circle class="st1" cx="242.85" cy="176.08" r="15.76"/>
		<circle class="st1" cx="251.04" cy="139.06" r="8.57"/>
	</g>
</g>
<g>
	<path class="st0" d="M471.05,118h-21.77c-0.4-2.82-1.21-5.33-2.44-7.53s-2.8-4.08-4.72-5.64c-1.92-1.56-4.13-2.75-6.63-3.58
		s-5.21-1.24-8.13-1.24c-5.27,0-9.86,1.3-13.77,3.9c-3.91,2.6-6.94,6.38-9.09,11.33c-2.15,4.95-3.23,10.96-3.23,18.02
		c0,7.26,1.08,13.35,3.26,18.29c2.17,4.94,5.21,8.67,9.12,11.18c3.91,2.52,8.43,3.78,13.57,3.78c2.88,0,5.56-0.38,8.03-1.14
		c2.47-0.76,4.66-1.88,6.58-3.35c1.92-1.47,3.52-3.27,4.8-5.39c1.27-2.12,2.16-4.54,2.66-7.26l21.77,0.1
		c-0.56,4.67-1.96,9.17-4.2,13.49s-5.24,8.18-9,11.58s-8.23,6.08-13.42,8.05s-11.04,2.96-17.57,2.96c-9.08,0-17.19-2.05-24.33-6.16
		s-12.77-10.06-16.9-17.84c-4.12-7.79-6.19-17.21-6.19-28.28c0-11.1,2.09-20.54,6.26-28.33c4.17-7.79,9.84-13.72,17-17.82
		c7.16-4.09,15.21-6.14,24.15-6.14c5.9,0,11.37,0.83,16.43,2.48c5.05,1.66,9.53,4.07,13.44,7.23s7.1,7.03,9.57,11.6
		C468.78,106.87,470.36,112.11,471.05,118z"/>
	<path class="st0" d="M518.14,185.64c-7.72,0-14.39-1.65-20-4.95c-5.62-3.3-9.95-7.9-13-13.82c-3.05-5.91-4.57-12.78-4.57-20.6
		c0-7.88,1.52-14.79,4.57-20.7c3.05-5.91,7.38-10.52,13-13.82c5.62-3.3,12.28-4.95,20-4.95s14.39,1.65,20,4.95
		c5.62,3.3,9.95,7.9,13,13.82c3.05,5.91,4.57,12.81,4.57,20.7c0,7.82-1.52,14.69-4.57,20.6s-7.38,10.52-13,13.82
		C532.53,183.99,525.86,185.64,518.14,185.64z M518.24,169.24c3.51,0,6.44-1,8.8-3.01c2.35-2,4.13-4.75,5.34-8.22
		s1.81-7.44,1.81-11.88s-0.6-8.4-1.81-11.88s-2.99-6.23-5.34-8.25c-2.35-2.02-5.28-3.03-8.8-3.03c-3.55,0-6.52,1.01-8.92,3.03
		c-2.4,2.02-4.21,4.77-5.42,8.25c-1.21,3.48-1.81,7.44-1.81,11.88s0.6,8.4,1.81,11.88s3.01,6.22,5.42,8.22
		C511.72,168.24,514.69,169.24,518.24,169.24z"/>
	<path class="st0" d="M634.81,107.82l-26.69,76.33h-23.85l-26.69-76.33h22.36l15.85,54.62h0.79l15.8-54.62H634.81z"/>
	<path class="st0" d="M653.74,97.98c-3.15,0-5.85-1.05-8.1-3.16c-2.25-2.1-3.38-4.63-3.38-7.58c0-2.92,1.13-5.42,3.38-7.53
		c2.25-2.1,4.94-3.16,8.05-3.16c3.18,0,5.89,1.05,8.13,3.16c2.24,2.1,3.35,4.61,3.35,7.53c0,2.95-1.12,5.47-3.35,7.58
		C659.58,96.92,656.89,97.98,653.74,97.98z M643.06,184.15v-76.33h21.17v76.33H643.06z"/>
	<path class="st0" d="M707.36,185.39c-5.8,0-11.04-1.5-15.73-4.5s-8.4-7.42-11.13-13.27c-2.73-5.85-4.1-13.03-4.1-21.54
		c0-8.75,1.41-16.03,4.22-21.84c2.82-5.81,6.57-10.17,11.26-13.07c4.69-2.9,9.83-4.35,15.43-4.35c4.27,0,7.84,0.72,10.71,2.16
		s5.18,3.23,6.96,5.37c1.77,2.14,3.12,4.23,4.05,6.29h0.65V82.37h21.12v101.78h-20.87v-12.23h-0.89c-0.99,2.12-2.39,4.22-4.2,6.29
		c-1.81,2.07-4.14,3.79-7.01,5.14C714.96,184.71,711.47,185.39,707.36,185.39z M714.07,168.55c3.41,0,6.3-0.94,8.67-2.81
		s4.19-4.5,5.47-7.88s1.91-7.34,1.91-11.88s-0.63-8.48-1.89-11.83c-1.26-3.35-3.08-5.93-5.47-7.75c-2.39-1.82-5.28-2.73-8.7-2.73
		c-3.48,0-6.41,0.94-8.8,2.83c-2.39,1.89-4.19,4.51-5.42,7.85c-1.23,3.35-1.84,7.22-1.84,11.63c0,4.44,0.62,8.36,1.86,11.75
		c1.24,3.4,3.05,6.05,5.42,7.95C707.67,167.59,710.59,168.55,714.07,168.55z"/>
	<path class="st0" d="M785.53,184.15h-23.06l35.14-101.78h27.73l35.09,101.78h-23.06l-25.49-78.52h-0.79L785.53,184.15z
		 M784.09,144.15h54.47v16.8h-54.47V144.15z"/>
	<path class="st0" d="M871.9,212.78V107.82h20.87v12.82h0.94c0.93-2.05,2.28-4.15,4.05-6.29s4.09-3.93,6.96-5.37
		s6.44-2.16,10.71-2.16c5.57,0,10.7,1.45,15.41,4.35c4.7,2.9,8.46,7.26,11.28,13.07c2.82,5.81,4.22,13.1,4.22,21.84
		c0,8.52-1.37,15.7-4.1,21.54c-2.73,5.85-6.44,10.27-11.13,13.27c-4.69,3-9.93,4.5-15.73,4.5c-4.11,0-7.6-0.68-10.46-2.04
		c-2.87-1.36-5.21-3.07-7.03-5.14c-1.82-2.07-3.21-4.17-4.17-6.29h-0.65v40.85H871.9V212.78z M892.63,145.98
		c0,4.54,0.63,8.5,1.89,11.88s3.08,6.01,5.47,7.88s5.28,2.81,8.7,2.81c3.45,0,6.36-0.95,8.75-2.86c2.39-1.9,4.2-4.55,5.44-7.95
		s1.86-7.31,1.86-11.75c0-4.41-0.61-8.28-1.84-11.63s-3.03-5.96-5.42-7.85c-2.38-1.89-5.32-2.83-8.8-2.83
		c-3.45,0-6.35,0.91-8.72,2.73c-2.37,1.82-4.18,4.41-5.44,7.75C893.26,137.5,892.63,141.44,892.63,145.98z"/>
	<path class="st0" d="M958.79,212.78V107.82h20.87v12.82h0.94c0.93-2.05,2.28-4.15,4.05-6.29s4.09-3.93,6.96-5.37
		s6.44-2.16,10.71-2.16c5.57,0,10.7,1.45,15.41,4.35c4.7,2.9,8.46,7.26,11.28,13.07c2.82,5.81,4.22,13.1,4.22,21.84
		c0,8.52-1.37,15.7-4.1,21.54c-2.73,5.85-6.44,10.27-11.13,13.27c-4.69,3-9.93,4.5-15.73,4.5c-4.11,0-7.6-0.68-10.46-2.04
		c-2.87-1.36-5.21-3.07-7.03-5.14c-1.82-2.07-3.21-4.17-4.17-6.29h-0.65v40.85h-21.17V212.78z M979.51,145.98
		c0,4.54,0.63,8.5,1.89,11.88s3.08,6.01,5.47,7.88s5.28,2.81,8.7,2.81c3.45,0,6.36-0.95,8.75-2.86c2.39-1.9,4.2-4.55,5.44-7.95
		s1.86-7.31,1.86-11.75c0-4.41-0.61-8.28-1.84-11.63s-3.03-5.96-5.42-7.85c-2.38-1.89-5.32-2.83-8.8-2.83
		c-3.45,0-6.35,0.91-8.72,2.73c-2.37,1.82-4.18,4.41-5.44,7.75C980.14,137.5,979.51,141.44,979.51,145.98z"/>
</g>
<g>
	<path class="st0" d="M404.45,213.74c0,2.62-0.47,4.9-1.4,6.84c-0.93,1.94-2.22,3.43-3.85,4.5c-1.63,1.06-3.51,1.59-5.63,1.59
		s-4-0.53-5.63-1.59s-2.92-2.56-3.85-4.5s-1.39-4.22-1.39-6.84c0-2.62,0.47-4.9,1.39-6.84c0.93-1.94,2.21-3.44,3.85-4.49
		c1.64-1.06,3.51-1.59,5.63-1.59s4,0.53,5.63,1.59s2.92,2.56,3.85,4.49C403.99,208.84,404.45,211.12,404.45,213.74z M402.22,213.74
		c0-2.25-0.38-4.19-1.13-5.79c-0.75-1.61-1.78-2.84-3.08-3.69s-2.78-1.28-4.43-1.28c-1.65,0-3.12,0.42-4.42,1.28
		c-1.3,0.85-2.33,2.08-3.09,3.69s-1.14,3.54-1.14,5.8c0,2.25,0.38,4.18,1.13,5.78c0.75,1.61,1.78,2.84,3.08,3.69
		c1.3,0.86,2.78,1.28,4.43,1.28c1.65,0,3.13-0.43,4.44-1.28c1.31-0.85,2.34-2.08,3.09-3.69
		C401.85,217.92,402.23,215.99,402.22,213.74z M393.25,218.45h2.56l3.22,4.26l0.54,0.71l3.95,5.24h-2.55l-2.9-3.87l-0.51-0.69
		L393.25,218.45z"/>
	<path class="st0" d="M426.66,201.16h2.3v16.66c0,1.71-0.4,3.24-1.2,4.59c-0.8,1.35-1.92,2.41-3.35,3.18
		c-1.43,0.78-3.09,1.16-4.98,1.16c-1.88,0-3.54-0.39-4.98-1.17c-1.43-0.78-2.55-1.84-3.35-3.18c-0.8-1.34-1.2-2.87-1.2-4.58v-16.66
		h2.3v16.5c0,1.33,0.3,2.52,0.9,3.57c0.6,1.05,1.44,1.87,2.52,2.46c1.08,0.6,2.36,0.9,3.81,0.9c1.46,0,2.73-0.3,3.82-0.9
		c1.09-0.6,1.93-1.42,2.52-2.46c0.59-1.05,0.89-2.23,0.89-3.57L426.66,201.16L426.66,201.16z"/>
	<path class="st0" d="M434.55,226.32h-2.41l9.15-25.16h2.46l9.15,25.16h-2.41l-7.89-22.17h-0.17L434.55,226.32z M436.28,216.67
		h12.48v2.06h-12.48V216.67z"/>
	<path class="st0" d="M457.19,226.32v-25.16h8.12c1.78,0,3.28,0.32,4.48,0.96c1.2,0.65,2.1,1.53,2.71,2.67
		c0.61,1.14,0.92,2.43,0.92,3.9c0,1.46-0.3,2.76-0.92,3.88c-0.61,1.12-1.51,2-2.71,2.63s-2.68,0.95-4.45,0.95h-6.92v-2.1h6.86
		c1.31,0,2.4-0.22,3.27-0.65c0.87-0.43,1.52-1.05,1.95-1.85s0.65-1.75,0.65-2.85s-0.22-2.06-0.65-2.88
		c-0.43-0.82-1.08-1.46-1.96-1.91c-0.87-0.45-1.97-0.68-3.3-0.68h-5.76v23.1h-2.29V226.32z M468.28,214.97l6.19,11.35h-2.65
		l-6.13-11.35H468.28z"/>
	<path class="st0" d="M479.05,226.32v-25.16h14.59v2.06h-12.3v9.47h11.52v2.06h-11.52v9.5h12.54v2.06h-14.83V226.32z"/>
	<path class="st0" d="M518.44,201.16v25.16h-2.24l-14.86-21.07h-0.2v21.07h-2.3v-25.16h2.22l14.91,21.09h0.2v-21.09H518.44z"/>
	<path class="st0" d="M523.14,203.22v-2.06h18.24v2.06h-7.97v23.1h-2.3v-23.1H523.14z"/>
	<path class="st0" d="M546.07,226.32v-25.16h14.59v2.06h-12.3v9.47h11.52v2.06h-11.52v9.5h12.54v2.06h-14.83V226.32z"/>
	<path class="st0" d="M585.46,201.16v25.16h-2.24l-14.86-21.07h-0.2v21.07h-2.3v-25.16h2.22l14.91,21.09h0.2v-21.09H585.46z"/>
	<path class="st0" d="M592.13,226.32h-2.41l9.15-25.16h2.46l9.15,25.16h-2.41l-7.89-22.17h-0.17L592.13,226.32z M593.86,216.67
		h12.48v2.06h-12.48V216.67z"/>
	<path class="st0" d="M626.82,201.16v25.16h-2.3v-25.16H626.82z"/>
	<path class="st0" d="M653.04,201.16v25.16h-2.24l-14.86-21.07h-0.2v21.07h-2.3v-25.16h2.22l14.91,21.09h0.2v-21.09H653.04z"/>
	<path class="st0" d="M657.73,203.22v-2.06h18.24v2.06H668v23.1h-2.3v-23.1H657.73z"/>
	<path class="st0" d="M680.67,226.32v-25.16h14.59v2.06h-12.3v9.47h11.52v2.06h-11.52v9.5h12.54v2.06h-14.83V226.32z"/>
	<path class="st0" d="M700.47,226.32v-25.16h2.3v23.09h11.99v2.06L700.47,226.32L700.47,226.32z"/>
	<path class="st0" d="M721.76,201.16v25.16h-2.3v-25.16H721.76z"/>
	<path class="st0" d="M745.84,209.02c-0.23-0.84-0.56-1.62-1.01-2.35c-0.44-0.73-0.99-1.37-1.64-1.93c-0.65-0.55-1.4-0.99-2.25-1.3
		s-1.79-0.47-2.83-0.47c-1.64,0-3.1,0.42-4.4,1.28s-2.32,2.08-3.06,3.69c-0.75,1.61-1.12,3.54-1.12,5.8c0,2.25,0.38,4.18,1.13,5.78
		c0.75,1.61,1.79,2.84,3.1,3.69c1.31,0.86,2.82,1.28,4.51,1.28c1.55,0,2.92-0.35,4.1-1.03c1.19-0.69,2.12-1.67,2.78-2.95
		c0.67-1.28,0.99-2.8,0.98-4.56l0.74,0.23h-8.06v-2.06h9.56v2.06c0,2.15-0.43,4-1.3,5.57c-0.87,1.56-2.06,2.77-3.58,3.62
		c-1.51,0.85-3.25,1.28-5.22,1.28c-2.19,0-4.11-0.53-5.76-1.59c-1.64-1.06-2.92-2.56-3.84-4.5c-0.91-1.94-1.37-4.22-1.37-6.84
		c0-1.97,0.26-3.76,0.79-5.34c0.53-1.59,1.27-2.95,2.23-4.08s2.1-1.99,3.42-2.6c1.32-0.6,2.78-0.9,4.37-0.9
		c1.38,0,2.63,0.22,3.78,0.65c1.14,0.44,2.15,1.03,3.02,1.79c0.87,0.76,1.59,1.63,2.15,2.62s0.94,2.04,1.14,3.15L745.84,209.02
		L745.84,209.02z"/>
	<path class="st0" d="M754.02,226.32v-25.16h14.59v2.06h-12.3v9.47h11.52v2.06h-11.52v9.5h12.54v2.06h-14.83V226.32z"/>
	<path class="st0" d="M793.41,201.16v25.16h-2.23l-14.86-21.07h-0.2v21.07h-2.3v-25.16h2.22l14.91,21.09h0.2v-21.09H793.41z"/>
	<path class="st0" d="M798.1,203.22v-2.06h18.24v2.06h-7.97v23.1h-2.3v-23.1H798.1z"/>
	<path class="st0" d="M821.04,226.32v-25.16h14.59v2.06h-12.3v9.47h11.52v2.06h-11.52v9.5h12.54v2.06h-14.83V226.32z"/>
</g>
</svg>
